<?xml version="1.0" encoding="utf-8" standalone="no"?>
<!DOCTYPE svg PUBLIC "-//W3C//DTD SVG 1.1//EN"
  "http://www.w3.org/Graphics/SVG/1.1/DTD/svg11.dtd">
<svg xmlns:xlink="http://www.w3.org/1999/xlink" width="568.394687pt" height="387.674687pt" viewBox="0 0 568.394687 387.674687" xmlns="http://www.w3.org/2000/svg" version="1.1">
 <metadata>
  <rdf:RDF xmlns:dc="http://purl.org/dc/elements/1.1/" xmlns:cc="http://creativecommons.org/ns#" xmlns:rdf="http://www.w3.org/1999/02/22-rdf-syntax-ns#">
   <cc:Work>
    <dc:type rdf:resource="http://purl.org/dc/dcmitype/StillImage"/>
    <dc:date>2026-10-09T01:43:30.177202</dc:date>
    <dc:format>image/svg+xml</dc:format>
    <dc:creator>
     <cc:Agent>
      <dc:title>Matplotlib v3.9.2, https://matplotlib.org/</dc:title>
     </cc:Agent>
    </dc:creator>
   </cc:Work>
  </rdf:RDF>
 </metadata>
 <defs>
  <style type="text/css">*{stroke-linejoin: round; stroke-linecap: butt}</style>
 </defs>
 <g id="figure_1">
  <g id="patch_1">
   <path d="M 0 387.674687 
L 568.394687 387.674687 
L 568.394687 0 
L 0 0 
z
" style="fill: #ffffff"/>
  </g>
  <g id="axes_1">
   <g id="patch_2">
    <path d="M 50.104688 350.118437 
L 561.194687 350.118437 
L 561.194687 20.798437 
L 50.104688 20.798437 
z
" style="fill: #ffffff"/>
   </g>
   <g id="PolyCollection_1">
    <defs>
     <path id="mbe6f032544" d="M 96.567415 -325.970858 
L 96.567415 -307.783893 
L 119.798778 -314.598992 
L 166.261506 -331.920218 
L 212.724233 -345.097838 
L 259.18696 -343.923649 
L 305.649688 -349.357891 
L 352.112415 -348.923979 
L 398.575142 -349.454757 
L 445.037869 -346.92115 
L 491.500597 -349.207083 
L 537.963324 -344.863641 
L 537.963324 -350.289735 
L 537.963324 -350.289735 
L 491.500597 -351.907159 
L 445.037869 -351.024568 
L 398.575142 -351.026389 
L 352.112415 -351.164395 
L 305.649688 -350.691273 
L 259.18696 -346.827965 
L 212.724233 -346.689007 
L 166.261506 -346.580676 
L 119.798778 -340.136719 
L 96.567415 -325.970858 
z
"/>
    </defs>
    <g clip-path="url(#pd32472113f)">
     <use xlink:href="#mbe6f032544" x="0" y="387.674687" style="fill: #7f7f7f; fill-opacity: 0.15"/>
    </g>
   </g>
   <g id="PolyCollection_2">
    <defs>
     <path id="m219e84d5a7" d="M 96.567415 -329.829163 
L 96.567415 -314.075231 
L 119.798778 -317.996579 
L 166.261506 -333.710711 
L 212.724233 -344.660479 
L 259.18696 -345.132764 
L 305.649688 -347.097171 
L 352.112415 -344.952115 
L 398.575142 -346.480418 
L 445.037869 -345.124887 
L 491.500597 -345.102771 
L 537.963324 -344.020856 
L 537.963324 -346.980031 
L 537.963324 -346.980031 
L 491.500597 -348.55435 
L 445.037869 -347.875378 
L 398.575142 -349.043433 
L 352.112415 -348.125572 
L 305.649688 -351.065035 
L 259.18696 -348.170312 
L 212.724233 -347.352633 
L 166.261506 -346.391194 
L 119.798778 -340.406927 
L 96.567415 -329.829163 
z
"/>
    </defs>
    <g clip-path="url(#pd32472113f)">
     <use xlink:href="#m219e84d5a7" x="0" y="387.674687" style="fill: #2ca02c; fill-opacity: 0.15"/>
    </g>
   </g>
   <g id="PolyCollection_3">
    <defs>
     <path id="mfe84c0dad9" d="M 96.567415 -332.858847 
L 96.567415 -308.923063 
L 119.798778 -322.826296 
L 166.261506 -338.700714 
L 212.724233 -348.447103 
L 259.18696 -348.279511 
L 305.649688 -348.722251 
L 352.112415 -349.143748 
L 398.575142 -349.400431 
L 445.037869 -349.929481 
L 491.500597 -348.050489 
L 537.963324 -347.362655 
L 537.963324 -350.040434 
L 537.963324 -350.040434 
L 491.500597 -350.133241 
L 445.037869 -351.009701 
L 398.575142 -351.22305 
L 352.112415 -350.620176 
L 305.649688 -350.236571 
L 259.18696 -349.901669 
L 212.724233 -349.595094 
L 166.261506 -350.271657 
L 119.798778 -344.383121 
L 96.567415 -332.858847 
z
"/>
    </defs>
    <g clip-path="url(#pd32472113f)">
     <use xlink:href="#mfe84c0dad9" x="0" y="387.674687" style="fill: #1f77b4; fill-opacity: 0.15"/>
    </g>
   </g>
   <g id="matplotlib.axis_1">
    <g id="xtick_1">
     <g id="line2d_1">
      <path d="M 73.336051 350.118437 
L 73.336051 20.798437 
" clip-path="url(#pd32472113f)" style="fill: none; stroke-dasharray: 0.8,1.32; stroke-dashoffset: 0; stroke: #b0b0b0; stroke-width: 0.8"/>
     </g>
     <g id="line2d_2">
      <defs>
       <path id="m8050993010" d="M 0 0 
L 0 3.5 
" style="stroke: #000000; stroke-width: 0.8"/>
      </defs>
      <g>
       <use xlink:href="#m8050993010" x="73.336051" y="350.118437" style="stroke: #000000; stroke-width: 0.8"/>
      </g>
     </g>
     <g id="text_1">
      <!-- 0 -->
      <g transform="translate(70.154801 364.716875) scale(0.1 -0.1)">
       <defs>
        <path id="DejaVuSans-30" d="M 2034 4250 
Q 1547 4250 1301 3770 
Q 1056 3291 1056 2328 
Q 1056 1369 1301 889 
Q 1547 409 2034 409 
Q 2525 409 2770 889 
Q 3016 1369 3016 2328 
Q 3016 3291 2770 3770 
Q 2525 4250 2034 4250 
z
M 2034 4750 
Q 2819 4750 3233 4129 
Q 3647 3509 3647 2328 
Q 3647 1150 3233 529 
Q 2819 -91 2034 -91 
Q 1250 -91 836 529 
Q 422 1150 422 2328 
Q 422 3509 836 4129 
Q 1250 4750 2034 4750 
z
" transform="scale(0.015625)"/>
       </defs>
       <use xlink:href="#DejaVuSans-30"/>
      </g>
     </g>
    </g>
    <g id="xtick_2">
     <g id="line2d_3">
      <path d="M 119.798778 350.118437 
L 119.798778 20.798437 
" clip-path="url(#pd32472113f)" style="fill: none; stroke-dasharray: 0.8,1.32; stroke-dashoffset: 0; stroke: #b0b0b0; stroke-width: 0.8"/>
     </g>
     <g id="line2d_4">
      <g>
       <use xlink:href="#m8050993010" x="119.798778" y="350.118437" style="stroke: #000000; stroke-width: 0.8"/>
      </g>
     </g>
     <g id="text_2">
      <!-- 2 -->
      <g transform="translate(116.617528 364.716875) scale(0.1 -0.1)">
       <defs>
        <path id="DejaVuSans-32" d="M 1228 531 
L 3431 531 
L 3431 0 
L 469 0 
L 469 531 
Q 828 903 1448 1529 
Q 2069 2156 2228 2338 
Q 2531 2678 2651 2914 
Q 2772 3150 2772 3378 
Q 2772 3750 2511 3984 
Q 2250 4219 1831 4219 
Q 1534 4219 1204 4116 
Q 875 4013 500 3803 
L 500 4441 
Q 881 4594 1212 4672 
Q 1544 4750 1819 4750 
Q 2544 4750 2975 4387 
Q 3406 4025 3406 3419 
Q 3406 3131 3298 2873 
Q 3191 2616 2906 2266 
Q 2828 2175 2409 1742 
Q 1991 1309 1228 531 
z
" transform="scale(0.015625)"/>
       </defs>
       <use xlink:href="#DejaVuSans-32"/>
      </g>
     </g>
    </g>
    <g id="xtick_3">
     <g id="line2d_5">
      <path d="M 166.261506 350.118437 
L 166.261506 20.798437 
" clip-path="url(#pd32472113f)" style="fill: none; stroke-dasharray: 0.8,1.32; stroke-dashoffset: 0; stroke: #b0b0b0; stroke-width: 0.8"/>
     </g>
     <g id="line2d_6">
      <g>
       <use xlink:href="#m8050993010" x="166.261506" y="350.118437" style="stroke: #000000; stroke-width: 0.8"/>
      </g>
     </g>
     <g id="text_3">
      <!-- 4 -->
      <g transform="translate(163.080256 364.716875) scale(0.1 -0.1)">
       <defs>
        <path id="DejaVuSans-34" d="M 2419 4116 
L 825 1625 
L 2419 1625 
L 2419 4116 
z
M 2253 4666 
L 3047 4666 
L 3047 1625 
L 3713 1625 
L 3713 1100 
L 3047 1100 
L 3047 0 
L 2419 0 
L 2419 1100 
L 313 1100 
L 313 1709 
L 2253 4666 
z
" transform="scale(0.015625)"/>
       </defs>
       <use xlink:href="#DejaVuSans-34"/>
      </g>
     </g>
    </g>
    <g id="xtick_4">
     <g id="line2d_7">
      <path d="M 212.724233 350.118437 
L 212.724233 20.798437 
" clip-path="url(#pd32472113f)" style="fill: none; stroke-dasharray: 0.8,1.32; stroke-dashoffset: 0; stroke: #b0b0b0; stroke-width: 0.8"/>
     </g>
     <g id="line2d_8">
      <g>
       <use xlink:href="#m8050993010" x="212.724233" y="350.118437" style="stroke: #000000; stroke-width: 0.8"/>
      </g>
     </g>
     <g id="text_4">
      <!-- 6 -->
      <g transform="translate(209.542983 364.716875) scale(0.1 -0.1)">
       <defs>
        <path id="DejaVuSans-36" d="M 2113 2584 
Q 1688 2584 1439 2293 
Q 1191 2003 1191 1497 
Q 1191 994 1439 701 
Q 1688 409 2113 409 
Q 2538 409 2786 701 
Q 3034 994 3034 1497 
Q 3034 2003 2786 2293 
Q 2538 2584 2113 2584 
z
M 3366 4563 
L 3366 3988 
Q 3128 4100 2886 4159 
Q 2644 4219 2406 4219 
Q 1781 4219 1451 3797 
Q 1122 3375 1075 2522 
Q 1259 2794 1537 2939 
Q 1816 3084 2150 3084 
Q 2853 3084 3261 2657 
Q 3669 2231 3669 1497 
Q 3669 778 3244 343 
Q 2819 -91 2113 -91 
Q 1303 -91 875 529 
Q 447 1150 447 2328 
Q 447 3434 972 4092 
Q 1497 4750 2381 4750 
Q 2619 4750 2861 4703 
Q 3103 4656 3366 4563 
z
" transform="scale(0.015625)"/>
       </defs>
       <use xlink:href="#DejaVuSans-36"/>
      </g>
     </g>
    </g>
    <g id="xtick_5">
     <g id="line2d_9">
      <path d="M 259.18696 350.118437 
L 259.18696 20.798437 
" clip-path="url(#pd32472113f)" style="fill: none; stroke-dasharray: 0.8,1.32; stroke-dashoffset: 0; stroke: #b0b0b0; stroke-width: 0.8"/>
     </g>
     <g id="line2d_10">
      <g>
       <use xlink:href="#m8050993010" x="259.18696" y="350.118437" style="stroke: #000000; stroke-width: 0.8"/>
      </g>
     </g>
     <g id="text_5">
      <!-- 8 -->
      <g transform="translate(256.00571 364.716875) scale(0.1 -0.1)">
       <defs>
        <path id="DejaVuSans-38" d="M 2034 2216 
Q 1584 2216 1326 1975 
Q 1069 1734 1069 1313 
Q 1069 891 1326 650 
Q 1584 409 2034 409 
Q 2484 409 2743 651 
Q 3003 894 3003 1313 
Q 3003 1734 2745 1975 
Q 2488 2216 2034 2216 
z
M 1403 2484 
Q 997 2584 770 2862 
Q 544 3141 544 3541 
Q 544 4100 942 4425 
Q 1341 4750 2034 4750 
Q 2731 4750 3128 4425 
Q 3525 4100 3525 3541 
Q 3525 3141 3298 2862 
Q 3072 2584 2669 2484 
Q 3125 2378 3379 2068 
Q 3634 1759 3634 1313 
Q 3634 634 3220 271 
Q 2806 -91 2034 -91 
Q 1263 -91 848 271 
Q 434 634 434 1313 
Q 434 1759 690 2068 
Q 947 2378 1403 2484 
z
M 1172 3481 
Q 1172 3119 1398 2916 
Q 1625 2713 2034 2713 
Q 2441 2713 2670 2916 
Q 2900 3119 2900 3481 
Q 2900 3844 2670 4047 
Q 2441 4250 2034 4250 
Q 1625 4250 1398 4047 
Q 1172 3844 1172 3481 
z
" transform="scale(0.015625)"/>
       </defs>
       <use xlink:href="#DejaVuSans-38"/>
      </g>
     </g>
    </g>
    <g id="xtick_6">
     <g id="line2d_11">
      <path d="M 305.649688 350.118437 
L 305.649688 20.798437 
" clip-path="url(#pd32472113f)" style="fill: none; stroke-dasharray: 0.8,1.32; stroke-dashoffset: 0; stroke: #b0b0b0; stroke-width: 0.8"/>
     </g>
     <g id="line2d_12">
      <g>
       <use xlink:href="#m8050993010" x="305.649688" y="350.118437" style="stroke: #000000; stroke-width: 0.8"/>
      </g>
     </g>
     <g id="text_6">
      <!-- 10 -->
      <g transform="translate(299.287188 364.716875) scale(0.1 -0.1)">
       <defs>
        <path id="DejaVuSans-31" d="M 794 531 
L 1825 531 
L 1825 4091 
L 703 3866 
L 703 4441 
L 1819 4666 
L 2450 4666 
L 2450 531 
L 3481 531 
L 3481 0 
L 794 0 
L 794 531 
z
" transform="scale(0.015625)"/>
       </defs>
       <use xlink:href="#DejaVuSans-31"/>
       <use xlink:href="#DejaVuSans-30" x="63.623047"/>
      </g>
     </g>
    </g>
    <g id="xtick_7">
     <g id="line2d_13">
      <path d="M 352.112415 350.118437 
L 352.112415 20.798437 
" clip-path="url(#pd32472113f)" style="fill: none; stroke-dasharray: 0.8,1.32; stroke-dashoffset: 0; stroke: #b0b0b0; stroke-width: 0.8"/>
     </g>
     <g id="line2d_14">
      <g>
       <use xlink:href="#m8050993010" x="352.112415" y="350.118437" style="stroke: #000000; stroke-width: 0.8"/>
      </g>
     </g>
     <g id="text_7">
      <!-- 12 -->
      <g transform="translate(345.749915 364.716875) scale(0.1 -0.1)">
       <use xlink:href="#DejaVuSans-31"/>
       <use xlink:href="#DejaVuSans-32" x="63.623047"/>
      </g>
     </g>
    </g>
    <g id="xtick_8">
     <g id="line2d_15">
      <path d="M 398.575142 350.118437 
L 398.575142 20.798437 
" clip-path="url(#pd32472113f)" style="fill: none; stroke-dasharray: 0.8,1.32; stroke-dashoffset: 0; stroke: #b0b0b0; stroke-width: 0.8"/>
     </g>
     <g id="line2d_16">
      <g>
       <use xlink:href="#m8050993010" x="398.575142" y="350.118437" style="stroke: #000000; stroke-width: 0.8"/>
      </g>
     </g>
     <g id="text_8">
      <!-- 14 -->
      <g transform="translate(392.212642 364.716875) scale(0.1 -0.1)">
       <use xlink:href="#DejaVuSans-31"/>
       <use xlink:href="#DejaVuSans-34" x="63.623047"/>
      </g>
     </g>
    </g>
    <g id="xtick_9">
     <g id="line2d_17">
      <path d="M 445.037869 350.118437 
L 445.037869 20.798437 
" clip-path="url(#pd32472113f)" style="fill: none; stroke-dasharray: 0.8,1.32; stroke-dashoffset: 0; stroke: #b0b0b0; stroke-width: 0.8"/>
     </g>
     <g id="line2d_18">
      <g>
       <use xlink:href="#m8050993010" x="445.037869" y="350.118437" style="stroke: #000000; stroke-width: 0.8"/>
      </g>
     </g>
     <g id="text_9">
      <!-- 16 -->
      <g transform="translate(438.675369 364.716875) scale(0.1 -0.1)">
       <use xlink:href="#DejaVuSans-31"/>
       <use xlink:href="#DejaVuSans-36" x="63.623047"/>
      </g>
     </g>
    </g>
    <g id="xtick_10">
     <g id="line2d_19">
      <path d="M 491.500597 350.118437 
L 491.500597 20.798437 
" clip-path="url(#pd32472113f)" style="fill: none; stroke-dasharray: 0.8,1.32; stroke-dashoffset: 0; stroke: #b0b0b0; stroke-width: 0.8"/>
     </g>
     <g id="line2d_20">
      <g>
       <use xlink:href="#m8050993010" x="491.500597" y="350.118437" style="stroke: #000000; stroke-width: 0.8"/>
      </g>
     </g>
     <g id="text_10">
      <!-- 18 -->
      <g transform="translate(485.138097 364.716875) scale(0.1 -0.1)">
       <use xlink:href="#DejaVuSans-31"/>
       <use xlink:href="#DejaVuSans-38" x="63.623047"/>
      </g>
     </g>
    </g>
    <g id="xtick_11">
     <g id="line2d_21">
      <path d="M 537.963324 350.118437 
L 537.963324 20.798437 
" clip-path="url(#pd32472113f)" style="fill: none; stroke-dasharray: 0.8,1.32; stroke-dashoffset: 0; stroke: #b0b0b0; stroke-width: 0.8"/>
     </g>
     <g id="line2d_22">
      <g>
       <use xlink:href="#m8050993010" x="537.963324" y="350.118437" style="stroke: #000000; stroke-width: 0.8"/>
      </g>
     </g>
     <g id="text_11">
      <!-- 20 -->
      <g transform="translate(531.600824 364.716875) scale(0.1 -0.1)">
       <use xlink:href="#DejaVuSans-32"/>
       <use xlink:href="#DejaVuSans-30" x="63.623047"/>
      </g>
     </g>
    </g>
    <g id="text_12">
     <!-- # Samples -->
     <g transform="translate(278.517656 378.395) scale(0.1 -0.1)">
      <defs>
       <path id="DejaVuSans-23" d="M 3272 2816 
L 2363 2816 
L 2100 1772 
L 3016 1772 
L 3272 2816 
z
M 2803 4594 
L 2478 3297 
L 3391 3297 
L 3719 4594 
L 4219 4594 
L 3897 3297 
L 4872 3297 
L 4872 2816 
L 3775 2816 
L 3519 1772 
L 4513 1772 
L 4513 1294 
L 3397 1294 
L 3072 0 
L 2572 0 
L 2894 1294 
L 1978 1294 
L 1656 0 
L 1153 0 
L 1478 1294 
L 494 1294 
L 494 1772 
L 1594 1772 
L 1856 2816 
L 850 2816 
L 850 3297 
L 1978 3297 
L 2297 4594 
L 2803 4594 
z
" transform="scale(0.015625)"/>
       <path id="DejaVuSans-20" transform="scale(0.015625)"/>
       <path id="DejaVuSans-53" d="M 3425 4513 
L 3425 3897 
Q 3066 4069 2747 4153 
Q 2428 4238 2131 4238 
Q 1616 4238 1336 4038 
Q 1056 3838 1056 3469 
Q 1056 3159 1242 3001 
Q 1428 2844 1947 2747 
L 2328 2669 
Q 3034 2534 3370 2195 
Q 3706 1856 3706 1288 
Q 3706 609 3251 259 
Q 2797 -91 1919 -91 
Q 1588 -91 1214 -16 
Q 841 59 441 206 
L 441 856 
Q 825 641 1194 531 
Q 1563 422 1919 422 
Q 2459 422 2753 634 
Q 3047 847 3047 1241 
Q 3047 1584 2836 1778 
Q 2625 1972 2144 2069 
L 1759 2144 
Q 1053 2284 737 2584 
Q 422 2884 422 3419 
Q 422 4038 858 4394 
Q 1294 4750 2059 4750 
Q 2388 4750 2728 4690 
Q 3069 4631 3425 4513 
z
" transform="scale(0.015625)"/>
       <path id="DejaVuSans-61" d="M 2194 1759 
Q 1497 1759 1228 1600 
Q 959 1441 959 1056 
Q 959 750 1161 570 
Q 1363 391 1709 391 
Q 2188 391 2477 730 
Q 2766 1069 2766 1631 
L 2766 1759 
L 2194 1759 
z
M 3341 1997 
L 3341 0 
L 2766 0 
L 2766 531 
Q 2569 213 2275 61 
Q 1981 -91 1556 -91 
Q 1019 -91 701 211 
Q 384 513 384 1019 
Q 384 1609 779 1909 
Q 1175 2209 1959 2209 
L 2766 2209 
L 2766 2266 
Q 2766 2663 2505 2880 
Q 2244 3097 1772 3097 
Q 1472 3097 1187 3025 
Q 903 2953 641 2809 
L 641 3341 
Q 956 3463 1253 3523 
Q 1550 3584 1831 3584 
Q 2591 3584 2966 3190 
Q 3341 2797 3341 1997 
z
" transform="scale(0.015625)"/>
       <path id="DejaVuSans-6d" d="M 3328 2828 
Q 3544 3216 3844 3400 
Q 4144 3584 4550 3584 
Q 5097 3584 5394 3201 
Q 5691 2819 5691 2113 
L 5691 0 
L 5113 0 
L 5113 2094 
Q 5113 2597 4934 2840 
Q 4756 3084 4391 3084 
Q 3944 3084 3684 2787 
Q 3425 2491 3425 1978 
L 3425 0 
L 2847 0 
L 2847 2094 
Q 2847 2600 2669 2842 
Q 2491 3084 2119 3084 
Q 1678 3084 1418 2786 
Q 1159 2488 1159 1978 
L 1159 0 
L 581 0 
L 581 3500 
L 1159 3500 
L 1159 2956 
Q 1356 3278 1631 3431 
Q 1906 3584 2284 3584 
Q 2666 3584 2933 3390 
Q 3200 3197 3328 2828 
z
" transform="scale(0.015625)"/>
       <path id="DejaVuSans-70" d="M 1159 525 
L 1159 -1331 
L 581 -1331 
L 581 3500 
L 1159 3500 
L 1159 2969 
Q 1341 3281 1617 3432 
Q 1894 3584 2278 3584 
Q 2916 3584 3314 3078 
Q 3713 2572 3713 1747 
Q 3713 922 3314 415 
Q 2916 -91 2278 -91 
Q 1894 -91 1617 61 
Q 1341 213 1159 525 
z
M 3116 1747 
Q 3116 2381 2855 2742 
Q 2594 3103 2138 3103 
Q 1681 3103 1420 2742 
Q 1159 2381 1159 1747 
Q 1159 1113 1420 752 
Q 1681 391 2138 391 
Q 2594 391 2855 752 
Q 3116 1113 3116 1747 
z
" transform="scale(0.015625)"/>
       <path id="DejaVuSans-6c" d="M 603 4863 
L 1178 4863 
L 1178 0 
L 603 0 
L 603 4863 
z
" transform="scale(0.015625)"/>
       <path id="DejaVuSans-65" d="M 3597 1894 
L 3597 1613 
L 953 1613 
Q 991 1019 1311 708 
Q 1631 397 2203 397 
Q 2534 397 2845 478 
Q 3156 559 3463 722 
L 3463 178 
Q 3153 47 2828 -22 
Q 2503 -91 2169 -91 
Q 1331 -91 842 396 
Q 353 884 353 1716 
Q 353 2575 817 3079 
Q 1281 3584 2069 3584 
Q 2775 3584 3186 3129 
Q 3597 2675 3597 1894 
z
M 3022 2063 
Q 3016 2534 2758 2815 
Q 2500 3097 2075 3097 
Q 1594 3097 1305 2825 
Q 1016 2553 972 2059 
L 3022 2063 
z
" transform="scale(0.015625)"/>
       <path id="DejaVuSans-73" d="M 2834 3397 
L 2834 2853 
Q 2591 2978 2328 3040 
Q 2066 3103 1784 3103 
Q 1356 3103 1142 2972 
Q 928 2841 928 2578 
Q 928 2378 1081 2264 
Q 1234 2150 1697 2047 
L 1894 2003 
Q 2506 1872 2764 1633 
Q 3022 1394 3022 966 
Q 3022 478 2636 193 
Q 2250 -91 1575 -91 
Q 1294 -91 989 -36 
Q 684 19 347 128 
L 347 722 
Q 666 556 975 473 
Q 1284 391 1588 391 
Q 1994 391 2212 530 
Q 2431 669 2431 922 
Q 2431 1156 2273 1281 
Q 2116 1406 1581 1522 
L 1381 1569 
Q 847 1681 609 1914 
Q 372 2147 372 2553 
Q 372 3047 722 3315 
Q 1072 3584 1716 3584 
Q 2034 3584 2315 3537 
Q 2597 3491 2834 3397 
z
" transform="scale(0.015625)"/>
      </defs>
      <use xlink:href="#DejaVuSans-23"/>
      <use xlink:href="#DejaVuSans-20" x="83.789062"/>
      <use xlink:href="#DejaVuSans-53" x="115.576172"/>
      <use xlink:href="#DejaVuSans-61" x="179.052734"/>
      <use xlink:href="#DejaVuSans-6d" x="240.332031"/>
      <use xlink:href="#DejaVuSans-70" x="337.744141"/>
      <use xlink:href="#DejaVuSans-6c" x="401.220703"/>
      <use xlink:href="#DejaVuSans-65" x="429.003906"/>
      <use xlink:href="#DejaVuSans-73" x="490.527344"/>
     </g>
    </g>
   </g>
   <g id="matplotlib.axis_2">
    <g id="ytick_1">
     <g id="line2d_23">
      <path d="M 50.104688 343.8778 
L 561.194687 343.8778 
" clip-path="url(#pd32472113f)" style="fill: none; stroke-dasharray: 0.8,1.32; stroke-dashoffset: 0; stroke: #b0b0b0; stroke-width: 0.8"/>
     </g>
     <g id="line2d_24">
      <defs>
       <path id="m0dd24ab050" d="M 0 0 
L -3.5 0 
" style="stroke: #000000; stroke-width: 0.8"/>
      </defs>
      <g>
       <use xlink:href="#m0dd24ab050" x="50.104688" y="343.8778" style="stroke: #000000; stroke-width: 0.8"/>
      </g>
     </g>
     <g id="text_13">
      <!-- 86% -->
      <g transform="translate(20.878125 347.677018) scale(0.1 -0.1)">
       <defs>
        <path id="DejaVuSans-25" d="M 4653 2053 
Q 4381 2053 4226 1822 
Q 4072 1591 4072 1178 
Q 4072 772 4226 539 
Q 4381 306 4653 306 
Q 4919 306 5073 539 
Q 5228 772 5228 1178 
Q 5228 1588 5073 1820 
Q 4919 2053 4653 2053 
z
M 4653 2450 
Q 5147 2450 5437 2106 
Q 5728 1763 5728 1178 
Q 5728 594 5436 251 
Q 5144 -91 4653 -91 
Q 4153 -91 3862 251 
Q 3572 594 3572 1178 
Q 3572 1766 3864 2108 
Q 4156 2450 4653 2450 
z
M 1428 4353 
Q 1159 4353 1004 4120 
Q 850 3888 850 3481 
Q 850 3069 1003 2837 
Q 1156 2606 1428 2606 
Q 1700 2606 1854 2837 
Q 2009 3069 2009 3481 
Q 2009 3884 1853 4118 
Q 1697 4353 1428 4353 
z
M 4250 4750 
L 4750 4750 
L 1831 -91 
L 1331 -91 
L 4250 4750 
z
M 1428 4750 
Q 1922 4750 2215 4408 
Q 2509 4066 2509 3481 
Q 2509 2891 2217 2550 
Q 1925 2209 1428 2209 
Q 931 2209 642 2551 
Q 353 2894 353 3481 
Q 353 4063 643 4406 
Q 934 4750 1428 4750 
z
" transform="scale(0.015625)"/>
       </defs>
       <use xlink:href="#DejaVuSans-38"/>
       <use xlink:href="#DejaVuSans-36" x="63.623047"/>
       <use xlink:href="#DejaVuSans-25" x="127.246094"/>
      </g>
     </g>
    </g>
    <g id="ytick_2">
     <g id="line2d_25">
      <path d="M 50.104688 292.709057 
L 561.194687 292.709057 
" clip-path="url(#pd32472113f)" style="fill: none; stroke-dasharray: 0.8,1.32; stroke-dashoffset: 0; stroke: #b0b0b0; stroke-width: 0.8"/>
     </g>
     <g id="line2d_26">
      <g>
       <use xlink:href="#m0dd24ab050" x="50.104688" y="292.709057" style="stroke: #000000; stroke-width: 0.8"/>
      </g>
     </g>
     <g id="text_14">
      <!-- 88% -->
      <g transform="translate(20.878125 296.508275) scale(0.1 -0.1)">
       <use xlink:href="#DejaVuSans-38"/>
       <use xlink:href="#DejaVuSans-38" x="63.623047"/>
       <use xlink:href="#DejaVuSans-25" x="127.246094"/>
      </g>
     </g>
    </g>
    <g id="ytick_3">
     <g id="line2d_27">
      <path d="M 50.104688 241.540314 
L 561.194687 241.540314 
" clip-path="url(#pd32472113f)" style="fill: none; stroke-dasharray: 0.8,1.32; stroke-dashoffset: 0; stroke: #b0b0b0; stroke-width: 0.8"/>
     </g>
     <g id="line2d_28">
      <g>
       <use xlink:href="#m0dd24ab050" x="50.104688" y="241.540314" style="stroke: #000000; stroke-width: 0.8"/>
      </g>
     </g>
     <g id="text_15">
      <!-- 90% -->
      <g transform="translate(20.878125 245.339533) scale(0.1 -0.1)">
       <defs>
        <path id="DejaVuSans-39" d="M 703 97 
L 703 672 
Q 941 559 1184 500 
Q 1428 441 1663 441 
Q 2288 441 2617 861 
Q 2947 1281 2994 2138 
Q 2813 1869 2534 1725 
Q 2256 1581 1919 1581 
Q 1219 1581 811 2004 
Q 403 2428 403 3163 
Q 403 3881 828 4315 
Q 1253 4750 1959 4750 
Q 2769 4750 3195 4129 
Q 3622 3509 3622 2328 
Q 3622 1225 3098 567 
Q 2575 -91 1691 -91 
Q 1453 -91 1209 -44 
Q 966 3 703 97 
z
M 1959 2075 
Q 2384 2075 2632 2365 
Q 2881 2656 2881 3163 
Q 2881 3666 2632 3958 
Q 2384 4250 1959 4250 
Q 1534 4250 1286 3958 
Q 1038 3666 1038 3163 
Q 1038 2656 1286 2365 
Q 1534 2075 1959 2075 
z
" transform="scale(0.015625)"/>
       </defs>
       <use xlink:href="#DejaVuSans-39"/>
       <use xlink:href="#DejaVuSans-30" x="63.623047"/>
       <use xlink:href="#DejaVuSans-25" x="127.246094"/>
      </g>
     </g>
    </g>
    <g id="ytick_4">
     <g id="line2d_29">
      <path d="M 50.104688 190.371571 
L 561.194687 190.371571 
" clip-path="url(#pd32472113f)" style="fill: none; stroke-dasharray: 0.8,1.32; stroke-dashoffset: 0; stroke: #b0b0b0; stroke-width: 0.8"/>
     </g>
     <g id="line2d_30">
      <g>
       <use xlink:href="#m0dd24ab050" x="50.104688" y="190.371571" style="stroke: #000000; stroke-width: 0.8"/>
      </g>
     </g>
     <g id="text_16">
      <!-- 92% -->
      <g transform="translate(20.878125 194.17079) scale(0.1 -0.1)">
       <use xlink:href="#DejaVuSans-39"/>
       <use xlink:href="#DejaVuSans-32" x="63.623047"/>
       <use xlink:href="#DejaVuSans-25" x="127.246094"/>
      </g>
     </g>
    </g>
    <g id="ytick_5">
     <g id="line2d_31">
      <path d="M 50.104688 139.202828 
L 561.194687 139.202828 
" clip-path="url(#pd32472113f)" style="fill: none; stroke-dasharray: 0.8,1.32; stroke-dashoffset: 0; stroke: #b0b0b0; stroke-width: 0.8"/>
     </g>
     <g id="line2d_32">
      <g>
       <use xlink:href="#m0dd24ab050" x="50.104688" y="139.202828" style="stroke: #000000; stroke-width: 0.8"/>
      </g>
     </g>
     <g id="text_17">
      <!-- 94% -->
      <g transform="translate(20.878125 143.002047) scale(0.1 -0.1)">
       <use xlink:href="#DejaVuSans-39"/>
       <use xlink:href="#DejaVuSans-34" x="63.623047"/>
       <use xlink:href="#DejaVuSans-25" x="127.246094"/>
      </g>
     </g>
    </g>
    <g id="ytick_6">
     <g id="line2d_33">
      <path d="M 50.104688 88.034085 
L 561.194687 88.034085 
" clip-path="url(#pd32472113f)" style="fill: none; stroke-dasharray: 0.8,1.32; stroke-dashoffset: 0; stroke: #b0b0b0; stroke-width: 0.8"/>
     </g>
     <g id="line2d_34">
      <g>
       <use xlink:href="#m0dd24ab050" x="50.104688" y="88.034085" style="stroke: #000000; stroke-width: 0.8"/>
      </g>
     </g>
     <g id="text_18">
      <!-- 96% -->
      <g transform="translate(20.878125 91.833304) scale(0.1 -0.1)">
       <use xlink:href="#DejaVuSans-39"/>
       <use xlink:href="#DejaVuSans-36" x="63.623047"/>
       <use xlink:href="#DejaVuSans-25" x="127.246094"/>
      </g>
     </g>
    </g>
    <g id="ytick_7">
     <g id="line2d_35">
      <path d="M 50.104688 36.865342 
L 561.194687 36.865342 
" clip-path="url(#pd32472113f)" style="fill: none; stroke-dasharray: 0.8,1.32; stroke-dashoffset: 0; stroke: #b0b0b0; stroke-width: 0.8"/>
     </g>
     <g id="line2d_36">
      <g>
       <use xlink:href="#m0dd24ab050" x="50.104688" y="36.865342" style="stroke: #000000; stroke-width: 0.8"/>
      </g>
     </g>
     <g id="text_19">
      <!-- 98% -->
      <g transform="translate(20.878125 40.664561) scale(0.1 -0.1)">
       <use xlink:href="#DejaVuSans-39"/>
       <use xlink:href="#DejaVuSans-38" x="63.623047"/>
       <use xlink:href="#DejaVuSans-25" x="127.246094"/>
      </g>
     </g>
    </g>
    <g id="text_20">
     <!-- Accuracy (%) -->
     <g transform="translate(14.798438 218.527969) rotate(-90) scale(0.1 -0.1)">
      <defs>
       <path id="DejaVuSans-41" d="M 2188 4044 
L 1331 1722 
L 3047 1722 
L 2188 4044 
z
M 1831 4666 
L 2547 4666 
L 4325 0 
L 3669 0 
L 3244 1197 
L 1141 1197 
L 716 0 
L 50 0 
L 1831 4666 
z
" transform="scale(0.015625)"/>
       <path id="DejaVuSans-63" d="M 3122 3366 
L 3122 2828 
Q 2878 2963 2633 3030 
Q 2388 3097 2138 3097 
Q 1578 3097 1268 2742 
Q 959 2388 959 1747 
Q 959 1106 1268 751 
Q 1578 397 2138 397 
Q 2388 397 2633 464 
Q 2878 531 3122 666 
L 3122 134 
Q 2881 22 2623 -34 
Q 2366 -91 2075 -91 
Q 1284 -91 818 406 
Q 353 903 353 1747 
Q 353 2603 823 3093 
Q 1294 3584 2113 3584 
Q 2378 3584 2631 3529 
Q 2884 3475 3122 3366 
z
" transform="scale(0.015625)"/>
       <path id="DejaVuSans-75" d="M 544 1381 
L 544 3500 
L 1119 3500 
L 1119 1403 
Q 1119 906 1312 657 
Q 1506 409 1894 409 
Q 2359 409 2629 706 
Q 2900 1003 2900 1516 
L 2900 3500 
L 3475 3500 
L 3475 0 
L 2900 0 
L 2900 538 
Q 2691 219 2414 64 
Q 2138 -91 1772 -91 
Q 1169 -91 856 284 
Q 544 659 544 1381 
z
M 1991 3584 
L 1991 3584 
z
" transform="scale(0.015625)"/>
       <path id="DejaVuSans-72" d="M 2631 2963 
Q 2534 3019 2420 3045 
Q 2306 3072 2169 3072 
Q 1681 3072 1420 2755 
Q 1159 2438 1159 1844 
L 1159 0 
L 581 0 
L 581 3500 
L 1159 3500 
L 1159 2956 
Q 1341 3275 1631 3429 
Q 1922 3584 2338 3584 
Q 2397 3584 2469 3576 
Q 2541 3569 2628 3553 
L 2631 2963 
z
" transform="scale(0.015625)"/>
       <path id="DejaVuSans-79" d="M 2059 -325 
Q 1816 -950 1584 -1140 
Q 1353 -1331 966 -1331 
L 506 -1331 
L 506 -850 
L 844 -850 
Q 1081 -850 1212 -737 
Q 1344 -625 1503 -206 
L 1606 56 
L 191 3500 
L 800 3500 
L 1894 763 
L 2988 3500 
L 3597 3500 
L 2059 -325 
z
" transform="scale(0.015625)"/>
       <path id="DejaVuSans-28" d="M 1984 4856 
Q 1566 4138 1362 3434 
Q 1159 2731 1159 2009 
Q 1159 1288 1364 580 
Q 1569 -128 1984 -844 
L 1484 -844 
Q 1016 -109 783 600 
Q 550 1309 550 2009 
Q 550 2706 781 3412 
Q 1013 4119 1484 4856 
L 1984 4856 
z
" transform="scale(0.015625)"/>
       <path id="DejaVuSans-29" d="M 513 4856 
L 1013 4856 
Q 1481 4119 1714 3412 
Q 1947 2706 1947 2009 
Q 1947 1309 1714 600 
Q 1481 -109 1013 -844 
L 513 -844 
Q 928 -128 1133 580 
Q 1338 1288 1338 2009 
Q 1338 2731 1133 3434 
Q 928 4138 513 4856 
z
" transform="scale(0.015625)"/>
      </defs>
      <use xlink:href="#DejaVuSans-41"/>
      <use xlink:href="#DejaVuSans-63" x="66.658203"/>
      <use xlink:href="#DejaVuSans-63" x="121.638672"/>
      <use xlink:href="#DejaVuSans-75" x="176.619141"/>
      <use xlink:href="#DejaVuSans-72" x="239.998047"/>
      <use xlink:href="#DejaVuSans-61" x="281.111328"/>
      <use xlink:href="#DejaVuSans-63" x="342.390625"/>
      <use xlink:href="#DejaVuSans-79" x="397.371094"/>
      <use xlink:href="#DejaVuSans-20" x="456.550781"/>
      <use xlink:href="#DejaVuSans-28" x="488.337891"/>
      <use xlink:href="#DejaVuSans-25" x="527.351562"/>
      <use xlink:href="#DejaVuSans-29" x="622.371094"/>
     </g>
    </g>
   </g>
   <g id="line2d_37">
    <path d="M 96.567415 70.797312 
L 119.798778 60.306832 
L 166.261506 48.424241 
L 212.724233 41.781265 
L 259.18696 42.298881 
L 305.649688 37.650105 
L 352.112415 37.630501 
L 398.575142 37.434114 
L 445.037869 38.701829 
L 491.500597 37.117567 
L 537.963324 40.098 
" clip-path="url(#pd32472113f)" style="fill: none; stroke: #7f7f7f; stroke-width: 1.5; stroke-linecap: square"/>
    <defs>
     <path id="md03d645f41" d="M 0 3 
C 0.795609 3 1.55874 2.683901 2.12132 2.12132 
C 2.683901 1.55874 3 0.795609 3 0 
C 3 -0.795609 2.683901 -1.55874 2.12132 -2.12132 
C 1.55874 -2.683901 0.795609 -3 0 -3 
C -0.795609 -3 -1.55874 -2.683901 -2.12132 -2.12132 
C -2.683901 -1.55874 -3 -0.795609 -3 0 
C -3 0.795609 -2.683901 1.55874 -2.12132 2.12132 
C -1.55874 2.683901 -0.795609 3 0 3 
z
" style="stroke: #7f7f7f"/>
    </defs>
    <g clip-path="url(#pd32472113f)">
     <use xlink:href="#md03d645f41" x="96.567415" y="70.797312" style="fill: #7f7f7f; stroke: #7f7f7f"/>
     <use xlink:href="#md03d645f41" x="119.798778" y="60.306832" style="fill: #7f7f7f; stroke: #7f7f7f"/>
     <use xlink:href="#md03d645f41" x="166.261506" y="48.424241" style="fill: #7f7f7f; stroke: #7f7f7f"/>
     <use xlink:href="#md03d645f41" x="212.724233" y="41.781265" style="fill: #7f7f7f; stroke: #7f7f7f"/>
     <use xlink:href="#md03d645f41" x="259.18696" y="42.298881" style="fill: #7f7f7f; stroke: #7f7f7f"/>
     <use xlink:href="#md03d645f41" x="305.649688" y="37.650105" style="fill: #7f7f7f; stroke: #7f7f7f"/>
     <use xlink:href="#md03d645f41" x="352.112415" y="37.630501" style="fill: #7f7f7f; stroke: #7f7f7f"/>
     <use xlink:href="#md03d645f41" x="398.575142" y="37.434114" style="fill: #7f7f7f; stroke: #7f7f7f"/>
     <use xlink:href="#md03d645f41" x="445.037869" y="38.701829" style="fill: #7f7f7f; stroke: #7f7f7f"/>
     <use xlink:href="#md03d645f41" x="491.500597" y="37.117567" style="fill: #7f7f7f; stroke: #7f7f7f"/>
     <use xlink:href="#md03d645f41" x="537.963324" y="40.098" style="fill: #7f7f7f; stroke: #7f7f7f"/>
    </g>
   </g>
   <g id="line2d_38">
    <path d="M 96.567415 65.72249 
L 119.798778 58.472934 
L 166.261506 47.623735 
L 212.724233 41.668132 
L 259.18696 41.02315 
L 305.649688 38.593585 
L 352.112415 41.135844 
L 398.575142 39.912762 
L 445.037869 41.174555 
L 491.500597 40.846127 
L 537.963324 42.174244 
" clip-path="url(#pd32472113f)" style="fill: none; stroke-dasharray: 9.6,2.4,1.5,2.4; stroke-dashoffset: 0; stroke: #2ca02c; stroke-width: 1.5"/>
    <defs>
     <path id="m3f1f80b915" d="M 0 3 
C 0.795609 3 1.55874 2.683901 2.12132 2.12132 
C 2.683901 1.55874 3 0.795609 3 0 
C 3 -0.795609 2.683901 -1.55874 2.12132 -2.12132 
C 1.55874 -2.683901 0.795609 -3 0 -3 
C -0.795609 -3 -1.55874 -2.683901 -2.12132 -2.12132 
C -2.683901 -1.55874 -3 -0.795609 -3 0 
C -3 0.795609 -2.683901 1.55874 -2.12132 2.12132 
C -1.55874 2.683901 -0.795609 3 0 3 
z
" style="stroke: #2ca02c"/>
    </defs>
    <g clip-path="url(#pd32472113f)">
     <use xlink:href="#m3f1f80b915" x="96.567415" y="65.72249" style="fill: #2ca02c; stroke: #2ca02c"/>
     <use xlink:href="#m3f1f80b915" x="119.798778" y="58.472934" style="fill: #2ca02c; stroke: #2ca02c"/>
     <use xlink:href="#m3f1f80b915" x="166.261506" y="47.623735" style="fill: #2ca02c; stroke: #2ca02c"/>
     <use xlink:href="#m3f1f80b915" x="212.724233" y="41.668132" style="fill: #2ca02c; stroke: #2ca02c"/>
     <use xlink:href="#m3f1f80b915" x="259.18696" y="41.02315" style="fill: #2ca02c; stroke: #2ca02c"/>
     <use xlink:href="#m3f1f80b915" x="305.649688" y="38.593585" style="fill: #2ca02c; stroke: #2ca02c"/>
     <use xlink:href="#m3f1f80b915" x="352.112415" y="41.135844" style="fill: #2ca02c; stroke: #2ca02c"/>
     <use xlink:href="#m3f1f80b915" x="398.575142" y="39.912762" style="fill: #2ca02c; stroke: #2ca02c"/>
     <use xlink:href="#m3f1f80b915" x="445.037869" y="41.174555" style="fill: #2ca02c; stroke: #2ca02c"/>
     <use xlink:href="#m3f1f80b915" x="491.500597" y="40.846127" style="fill: #2ca02c; stroke: #2ca02c"/>
     <use xlink:href="#m3f1f80b915" x="537.963324" y="42.174244" style="fill: #2ca02c; stroke: #2ca02c"/>
    </g>
   </g>
   <g id="line2d_39">
    <path d="M 96.567415 66.783733 
L 119.798778 54.069979 
L 166.261506 43.188502 
L 212.724233 38.653589 
L 259.18696 38.584098 
L 305.649688 38.195276 
L 352.112415 37.792726 
L 398.575142 37.362947 
L 445.037869 37.205096 
L 491.500597 38.582822 
L 537.963324 38.973143 
" clip-path="url(#pd32472113f)" style="fill: none; stroke-dasharray: 5.55,2.4; stroke-dashoffset: 0; stroke: #1f77b4; stroke-width: 1.5"/>
    <defs>
     <path id="md463fd5037" d="M 0 3 
C 0.795609 3 1.55874 2.683901 2.12132 2.12132 
C 2.683901 1.55874 3 0.795609 3 0 
C 3 -0.795609 2.683901 -1.55874 2.12132 -2.12132 
C 1.55874 -2.683901 0.795609 -3 0 -3 
C -0.795609 -3 -1.55874 -2.683901 -2.12132 -2.12132 
C -2.683901 -1.55874 -3 -0.795609 -3 0 
C -3 0.795609 -2.683901 1.55874 -2.12132 2.12132 
C -1.55874 2.683901 -0.795609 3 0 3 
z
" style="stroke: #1f77b4"/>
    </defs>
    <g clip-path="url(#pd32472113f)">
     <use xlink:href="#md463fd5037" x="96.567415" y="66.783733" style="fill: #1f77b4; stroke: #1f77b4"/>
     <use xlink:href="#md463fd5037" x="119.798778" y="54.069979" style="fill: #1f77b4; stroke: #1f77b4"/>
     <use xlink:href="#md463fd5037" x="166.261506" y="43.188502" style="fill: #1f77b4; stroke: #1f77b4"/>
     <use xlink:href="#md463fd5037" x="212.724233" y="38.653589" style="fill: #1f77b4; stroke: #1f77b4"/>
     <use xlink:href="#md463fd5037" x="259.18696" y="38.584098" style="fill: #1f77b4; stroke: #1f77b4"/>
     <use xlink:href="#md463fd5037" x="305.649688" y="38.195276" style="fill: #1f77b4; stroke: #1f77b4"/>
     <use xlink:href="#md463fd5037" x="352.112415" y="37.792726" style="fill: #1f77b4; stroke: #1f77b4"/>
     <use xlink:href="#md463fd5037" x="398.575142" y="37.362947" style="fill: #1f77b4; stroke: #1f77b4"/>
     <use xlink:href="#md463fd5037" x="445.037869" y="37.205096" style="fill: #1f77b4; stroke: #1f77b4"/>
     <use xlink:href="#md463fd5037" x="491.500597" y="38.582822" style="fill: #1f77b4; stroke: #1f77b4"/>
     <use xlink:href="#md463fd5037" x="537.963324" y="38.973143" style="fill: #1f77b4; stroke: #1f77b4"/>
    </g>
   </g>
   <g id="line2d_40">
    <path d="M 73.336051 223.663152 
" clip-path="url(#pd32472113f)" style="fill: none; stroke-dasharray: 5.55,2.4; stroke-dashoffset: 0; stroke: #1f77b4; stroke-width: 1.5"/>
    <defs>
     <path id="m94ca769af9" d="M 0 -3 
L -0.673542 -0.927051 
L -2.85317 -0.927051 
L -1.089814 0.354102 
L -1.763356 2.427051 
L -0 1.145898 
L 1.763356 2.427051 
L 1.089814 0.354102 
L 2.85317 -0.927051 
L 0.673542 -0.927051 
z
" style="stroke: #1f77b4; stroke-linejoin: bevel"/>
    </defs>
    <g clip-path="url(#pd32472113f)">
     <use xlink:href="#m94ca769af9" x="73.336051" y="223.663152" style="fill: #1f77b4; stroke: #1f77b4; stroke-linejoin: bevel"/>
    </g>
   </g>
   <g id="line2d_41">
    <path d="M 73.336051 335.149347 
" clip-path="url(#pd32472113f)" style="fill: none; stroke-dasharray: 9.6,2.4,1.5,2.4; stroke-dashoffset: 0; stroke: #2ca02c; stroke-width: 1.5"/>
    <defs>
     <path id="m83a9e5d0a1" d="M 0 -3 
L -0.673542 -0.927051 
L -2.85317 -0.927051 
L -1.089814 0.354102 
L -1.763356 2.427051 
L -0 1.145898 
L 1.763356 2.427051 
L 1.089814 0.354102 
L 2.85317 -0.927051 
L 0.673542 -0.927051 
z
" style="stroke: #2ca02c; stroke-linejoin: bevel"/>
    </defs>
    <g clip-path="url(#pd32472113f)">
     <use xlink:href="#m83a9e5d0a1" x="73.336051" y="335.149347" style="fill: #2ca02c; stroke: #2ca02c; stroke-linejoin: bevel"/>
    </g>
   </g>
   <g id="patch_3">
    <path d="M 50.104688 350.118437 
L 50.104688 20.798437 
" style="fill: none; stroke: #000000; stroke-width: 0.8; stroke-linejoin: miter; stroke-linecap: square"/>
   </g>
   <g id="patch_4">
    <path d="M 561.194687 350.118437 
L 561.194687 20.798437 
" style="fill: none; stroke: #000000; stroke-width: 0.8; stroke-linejoin: miter; stroke-linecap: square"/>
   </g>
   <g id="patch_5">
    <path d="M 50.104687 350.118437 
L 561.194687 350.118437 
" style="fill: none; stroke: #000000; stroke-width: 0.8; stroke-linejoin: miter; stroke-linecap: square"/>
   </g>
   <g id="patch_6">
    <path d="M 50.104687 20.798437 
L 561.194687 20.798437 
" style="fill: none; stroke: #000000; stroke-width: 0.8; stroke-linejoin: miter; stroke-linecap: square"/>
   </g>
   <g id="text_21">
    <g clip-path="url(#pd32472113f)">
     <!-- Zero-Shot -->
     <g style="fill: #1f77b4" transform="translate(51.048395 198.921217) scale(0.09 -0.09)">
      <defs>
       <path id="DejaVuSans-5a" d="M 359 4666 
L 4025 4666 
L 4025 4184 
L 1075 531 
L 4097 531 
L 4097 0 
L 288 0 
L 288 481 
L 3238 4134 
L 359 4134 
L 359 4666 
z
" transform="scale(0.015625)"/>
       <path id="DejaVuSans-6f" d="M 1959 3097 
Q 1497 3097 1228 2736 
Q 959 2375 959 1747 
Q 959 1119 1226 758 
Q 1494 397 1959 397 
Q 2419 397 2687 759 
Q 2956 1122 2956 1747 
Q 2956 2369 2687 2733 
Q 2419 3097 1959 3097 
z
M 1959 3584 
Q 2709 3584 3137 3096 
Q 3566 2609 3566 1747 
Q 3566 888 3137 398 
Q 2709 -91 1959 -91 
Q 1206 -91 779 398 
Q 353 888 353 1747 
Q 353 2609 779 3096 
Q 1206 3584 1959 3584 
z
" transform="scale(0.015625)"/>
       <path id="DejaVuSans-2d" d="M 313 2009 
L 1997 2009 
L 1997 1497 
L 313 1497 
L 313 2009 
z
" transform="scale(0.015625)"/>
       <path id="DejaVuSans-68" d="M 3513 2113 
L 3513 0 
L 2938 0 
L 2938 2094 
Q 2938 2591 2744 2837 
Q 2550 3084 2163 3084 
Q 1697 3084 1428 2787 
Q 1159 2491 1159 1978 
L 1159 0 
L 581 0 
L 581 4863 
L 1159 4863 
L 1159 2956 
Q 1366 3272 1645 3428 
Q 1925 3584 2291 3584 
Q 2894 3584 3203 3211 
Q 3513 2838 3513 2113 
z
" transform="scale(0.015625)"/>
       <path id="DejaVuSans-74" d="M 1172 4494 
L 1172 3500 
L 2356 3500 
L 2356 3053 
L 1172 3053 
L 1172 1153 
Q 1172 725 1289 603 
Q 1406 481 1766 481 
L 2356 481 
L 2356 0 
L 1766 0 
Q 1100 0 847 248 
Q 594 497 594 1153 
L 594 3053 
L 172 3053 
L 172 3500 
L 594 3500 
L 594 4494 
L 1172 4494 
z
" transform="scale(0.015625)"/>
      </defs>
      <use xlink:href="#DejaVuSans-5a"/>
      <use xlink:href="#DejaVuSans-65" x="68.505859"/>
      <use xlink:href="#DejaVuSans-72" x="130.029297"/>
      <use xlink:href="#DejaVuSans-6f" x="168.892578"/>
      <use xlink:href="#DejaVuSans-2d" x="231.949219"/>
      <use xlink:href="#DejaVuSans-53" x="268.033203"/>
      <use xlink:href="#DejaVuSans-68" x="331.509766"/>
      <use xlink:href="#DejaVuSans-6f" x="394.888672"/>
      <use xlink:href="#DejaVuSans-74" x="456.070312"/>
     </g>
    </g>
    <g clip-path="url(#pd32472113f)">
     <!-- VSUNet18 -->
     <g style="fill: #1f77b4" transform="translate(50.481676 208.999248) scale(0.09 -0.09)">
      <defs>
       <path id="DejaVuSans-56" d="M 1831 0 
L 50 4666 
L 709 4666 
L 2188 738 
L 3669 4666 
L 4325 4666 
L 2547 0 
L 1831 0 
z
" transform="scale(0.015625)"/>
       <path id="DejaVuSans-55" d="M 556 4666 
L 1191 4666 
L 1191 1831 
Q 1191 1081 1462 751 
Q 1734 422 2344 422 
Q 2950 422 3222 751 
Q 3494 1081 3494 1831 
L 3494 4666 
L 4128 4666 
L 4128 1753 
Q 4128 841 3676 375 
Q 3225 -91 2344 -91 
Q 1459 -91 1007 375 
Q 556 841 556 1753 
L 556 4666 
z
" transform="scale(0.015625)"/>
       <path id="DejaVuSans-4e" d="M 628 4666 
L 1478 4666 
L 3547 763 
L 3547 4666 
L 4159 4666 
L 4159 0 
L 3309 0 
L 1241 3903 
L 1241 0 
L 628 0 
L 628 4666 
z
" transform="scale(0.015625)"/>
      </defs>
      <use xlink:href="#DejaVuSans-56"/>
      <use xlink:href="#DejaVuSans-53" x="68.408203"/>
      <use xlink:href="#DejaVuSans-55" x="131.884766"/>
      <use xlink:href="#DejaVuSans-4e" x="205.078125"/>
      <use xlink:href="#DejaVuSans-65" x="279.882812"/>
      <use xlink:href="#DejaVuSans-74" x="341.40625"/>
      <use xlink:href="#DejaVuSans-31" x="380.615234"/>
      <use xlink:href="#DejaVuSans-38" x="444.238281"/>
     </g>
    </g>
   </g>
   <g id="text_22">
    <g clip-path="url(#pd32472113f)">
     <!-- Zero-Shot -->
     <g style="fill: #2ca02c" transform="translate(51.048395 310.407411) scale(0.09 -0.09)">
      <use xlink:href="#DejaVuSans-5a"/>
      <use xlink:href="#DejaVuSans-65" x="68.505859"/>
      <use xlink:href="#DejaVuSans-72" x="130.029297"/>
      <use xlink:href="#DejaVuSans-6f" x="168.892578"/>
      <use xlink:href="#DejaVuSans-2d" x="231.949219"/>
      <use xlink:href="#DejaVuSans-53" x="268.033203"/>
      <use xlink:href="#DejaVuSans-68" x="331.509766"/>
      <use xlink:href="#DejaVuSans-6f" x="394.888672"/>
      <use xlink:href="#DejaVuSans-74" x="456.070312"/>
     </g>
    </g>
    <g clip-path="url(#pd32472113f)">
     <!-- IN-UNet18 -->
     <g style="fill: #2ca02c" transform="translate(50.099176 320.485442) scale(0.09 -0.09)">
      <defs>
       <path id="DejaVuSans-49" d="M 628 4666 
L 1259 4666 
L 1259 0 
L 628 0 
L 628 4666 
z
" transform="scale(0.015625)"/>
      </defs>
      <use xlink:href="#DejaVuSans-49"/>
      <use xlink:href="#DejaVuSans-4e" x="29.492188"/>
      <use xlink:href="#DejaVuSans-2d" x="104.296875"/>
      <use xlink:href="#DejaVuSans-55" x="140.380859"/>
      <use xlink:href="#DejaVuSans-4e" x="213.574219"/>
      <use xlink:href="#DejaVuSans-65" x="288.378906"/>
      <use xlink:href="#DejaVuSans-74" x="349.902344"/>
      <use xlink:href="#DejaVuSans-31" x="389.111328"/>
      <use xlink:href="#DejaVuSans-38" x="452.734375"/>
     </g>
    </g>
   </g>
   <g id="text_23">
    <!-- OCTA2D — ResNet18 - Accuracy by num_samples and model_type -->
    <g transform="translate(139.417656 14.798437) scale(0.1 -0.1)">
     <defs>
      <path id="DejaVuSans-4f" d="M 2522 4238 
Q 1834 4238 1429 3725 
Q 1025 3213 1025 2328 
Q 1025 1447 1429 934 
Q 1834 422 2522 422 
Q 3209 422 3611 934 
Q 4013 1447 4013 2328 
Q 4013 3213 3611 3725 
Q 3209 4238 2522 4238 
z
M 2522 4750 
Q 3503 4750 4090 4092 
Q 4678 3434 4678 2328 
Q 4678 1225 4090 567 
Q 3503 -91 2522 -91 
Q 1538 -91 948 565 
Q 359 1222 359 2328 
Q 359 3434 948 4092 
Q 1538 4750 2522 4750 
z
" transform="scale(0.015625)"/>
      <path id="DejaVuSans-43" d="M 4122 4306 
L 4122 3641 
Q 3803 3938 3442 4084 
Q 3081 4231 2675 4231 
Q 1875 4231 1450 3742 
Q 1025 3253 1025 2328 
Q 1025 1406 1450 917 
Q 1875 428 2675 428 
Q 3081 428 3442 575 
Q 3803 722 4122 1019 
L 4122 359 
Q 3791 134 3420 21 
Q 3050 -91 2638 -91 
Q 1578 -91 968 557 
Q 359 1206 359 2328 
Q 359 3453 968 4101 
Q 1578 4750 2638 4750 
Q 3056 4750 3426 4639 
Q 3797 4528 4122 4306 
z
" transform="scale(0.015625)"/>
      <path id="DejaVuSans-54" d="M -19 4666 
L 3928 4666 
L 3928 4134 
L 2272 4134 
L 2272 0 
L 1638 0 
L 1638 4134 
L -19 4134 
L -19 4666 
z
" transform="scale(0.015625)"/>
      <path id="DejaVuSans-44" d="M 1259 4147 
L 1259 519 
L 2022 519 
Q 2988 519 3436 956 
Q 3884 1394 3884 2338 
Q 3884 3275 3436 3711 
Q 2988 4147 2022 4147 
L 1259 4147 
z
M 628 4666 
L 1925 4666 
Q 3281 4666 3915 4102 
Q 4550 3538 4550 2338 
Q 4550 1131 3912 565 
Q 3275 0 1925 0 
L 628 0 
L 628 4666 
z
" transform="scale(0.015625)"/>
      <path id="DejaVuSans-2014" d="M 313 1978 
L 6088 1978 
L 6088 1528 
L 313 1528 
L 313 1978 
z
" transform="scale(0.015625)"/>
      <path id="DejaVuSans-52" d="M 2841 2188 
Q 3044 2119 3236 1894 
Q 3428 1669 3622 1275 
L 4263 0 
L 3584 0 
L 2988 1197 
Q 2756 1666 2539 1819 
Q 2322 1972 1947 1972 
L 1259 1972 
L 1259 0 
L 628 0 
L 628 4666 
L 2053 4666 
Q 2853 4666 3247 4331 
Q 3641 3997 3641 3322 
Q 3641 2881 3436 2590 
Q 3231 2300 2841 2188 
z
M 1259 4147 
L 1259 2491 
L 2053 2491 
Q 2509 2491 2742 2702 
Q 2975 2913 2975 3322 
Q 2975 3731 2742 3939 
Q 2509 4147 2053 4147 
L 1259 4147 
z
" transform="scale(0.015625)"/>
      <path id="DejaVuSans-62" d="M 3116 1747 
Q 3116 2381 2855 2742 
Q 2594 3103 2138 3103 
Q 1681 3103 1420 2742 
Q 1159 2381 1159 1747 
Q 1159 1113 1420 752 
Q 1681 391 2138 391 
Q 2594 391 2855 752 
Q 3116 1113 3116 1747 
z
M 1159 2969 
Q 1341 3281 1617 3432 
Q 1894 3584 2278 3584 
Q 2916 3584 3314 3078 
Q 3713 2572 3713 1747 
Q 3713 922 3314 415 
Q 2916 -91 2278 -91 
Q 1894 -91 1617 61 
Q 1341 213 1159 525 
L 1159 0 
L 581 0 
L 581 4863 
L 1159 4863 
L 1159 2969 
z
" transform="scale(0.015625)"/>
      <path id="DejaVuSans-6e" d="M 3513 2113 
L 3513 0 
L 2938 0 
L 2938 2094 
Q 2938 2591 2744 2837 
Q 2550 3084 2163 3084 
Q 1697 3084 1428 2787 
Q 1159 2491 1159 1978 
L 1159 0 
L 581 0 
L 581 3500 
L 1159 3500 
L 1159 2956 
Q 1366 3272 1645 3428 
Q 1925 3584 2291 3584 
Q 2894 3584 3203 3211 
Q 3513 2838 3513 2113 
z
" transform="scale(0.015625)"/>
      <path id="DejaVuSans-5f" d="M 3263 -1063 
L 3263 -1509 
L -63 -1509 
L -63 -1063 
L 3263 -1063 
z
" transform="scale(0.015625)"/>
      <path id="DejaVuSans-64" d="M 2906 2969 
L 2906 4863 
L 3481 4863 
L 3481 0 
L 2906 0 
L 2906 525 
Q 2725 213 2448 61 
Q 2172 -91 1784 -91 
Q 1150 -91 751 415 
Q 353 922 353 1747 
Q 353 2572 751 3078 
Q 1150 3584 1784 3584 
Q 2172 3584 2448 3432 
Q 2725 3281 2906 2969 
z
M 947 1747 
Q 947 1113 1208 752 
Q 1469 391 1925 391 
Q 2381 391 2643 752 
Q 2906 1113 2906 1747 
Q 2906 2381 2643 2742 
Q 2381 3103 1925 3103 
Q 1469 3103 1208 2742 
Q 947 2381 947 1747 
z
" transform="scale(0.015625)"/>
     </defs>
     <use xlink:href="#DejaVuSans-4f"/>
     <use xlink:href="#DejaVuSans-43" x="78.710938"/>
     <use xlink:href="#DejaVuSans-54" x="148.535156"/>
     <use xlink:href="#DejaVuSans-41" x="201.869141"/>
     <use xlink:href="#DejaVuSans-32" x="270.277344"/>
     <use xlink:href="#DejaVuSans-44" x="333.900391"/>
     <use xlink:href="#DejaVuSans-20" x="410.902344"/>
     <use xlink:href="#DejaVuSans-2014" x="442.689453"/>
     <use xlink:href="#DejaVuSans-20" x="542.689453"/>
     <use xlink:href="#DejaVuSans-52" x="574.476562"/>
     <use xlink:href="#DejaVuSans-65" x="639.458984"/>
     <use xlink:href="#DejaVuSans-73" x="700.982422"/>
     <use xlink:href="#DejaVuSans-4e" x="753.082031"/>
     <use xlink:href="#DejaVuSans-65" x="827.886719"/>
     <use xlink:href="#DejaVuSans-74" x="889.410156"/>
     <use xlink:href="#DejaVuSans-31" x="928.619141"/>
     <use xlink:href="#DejaVuSans-38" x="992.242188"/>
     <use xlink:href="#DejaVuSans-20" x="1055.865234"/>
     <use xlink:href="#DejaVuSans-2d" x="1087.652344"/>
     <use xlink:href="#DejaVuSans-20" x="1123.736328"/>
     <use xlink:href="#DejaVuSans-41" x="1155.523438"/>
     <use xlink:href="#DejaVuSans-63" x="1222.181641"/>
     <use xlink:href="#DejaVuSans-63" x="1277.162109"/>
     <use xlink:href="#DejaVuSans-75" x="1332.142578"/>
     <use xlink:href="#DejaVuSans-72" x="1395.521484"/>
     <use xlink:href="#DejaVuSans-61" x="1436.634766"/>
     <use xlink:href="#DejaVuSans-63" x="1497.914062"/>
     <use xlink:href="#DejaVuSans-79" x="1552.894531"/>
     <use xlink:href="#DejaVuSans-20" x="1612.074219"/>
     <use xlink:href="#DejaVuSans-62" x="1643.861328"/>
     <use xlink:href="#DejaVuSans-79" x="1707.337891"/>
     <use xlink:href="#DejaVuSans-20" x="1766.517578"/>
     <use xlink:href="#DejaVuSans-6e" x="1798.304688"/>
     <use xlink:href="#DejaVuSans-75" x="1861.683594"/>
     <use xlink:href="#DejaVuSans-6d" x="1925.0625"/>
     <use xlink:href="#DejaVuSans-5f" x="2022.474609"/>
     <use xlink:href="#DejaVuSans-73" x="2072.474609"/>
     <use xlink:href="#DejaVuSans-61" x="2124.574219"/>
     <use xlink:href="#DejaVuSans-6d" x="2185.853516"/>
     <use xlink:href="#DejaVuSans-70" x="2283.265625"/>
     <use xlink:href="#DejaVuSans-6c" x="2346.742188"/>
     <use xlink:href="#DejaVuSans-65" x="2374.525391"/>
     <use xlink:href="#DejaVuSans-73" x="2436.048828"/>
     <use xlink:href="#DejaVuSans-20" x="2488.148438"/>
     <use xlink:href="#DejaVuSans-61" x="2519.935547"/>
     <use xlink:href="#DejaVuSans-6e" x="2581.214844"/>
     <use xlink:href="#DejaVuSans-64" x="2644.59375"/>
     <use xlink:href="#DejaVuSans-20" x="2708.070312"/>
     <use xlink:href="#DejaVuSans-6d" x="2739.857422"/>
     <use xlink:href="#DejaVuSans-6f" x="2837.269531"/>
     <use xlink:href="#DejaVuSans-64" x="2898.451172"/>
     <use xlink:href="#DejaVuSans-65" x="2961.927734"/>
     <use xlink:href="#DejaVuSans-6c" x="3023.451172"/>
     <use xlink:href="#DejaVuSans-5f" x="3051.234375"/>
     <use xlink:href="#DejaVuSans-74" x="3101.234375"/>
     <use xlink:href="#DejaVuSans-79" x="3140.443359"/>
     <use xlink:href="#DejaVuSans-70" x="3199.623047"/>
     <use xlink:href="#DejaVuSans-65" x="3263.099609"/>
    </g>
   </g>
   <g id="legend_1">
    <g id="patch_7">
     <path d="M 470.557187 345.118437 
L 554.194687 345.118437 
Q 556.194687 345.118437 556.194687 343.118437 
L 556.194687 285.405937 
Q 556.194687 283.405937 554.194687 283.405937 
L 470.557187 283.405937 
Q 468.557187 283.405937 468.557187 285.405937 
L 468.557187 343.118437 
Q 468.557187 345.118437 470.557187 345.118437 
z
" style="fill: #ffffff; opacity: 0.8; stroke: #cccccc; stroke-linejoin: miter"/>
    </g>
    <g id="text_24">
     <!-- Model Type -->
     <g transform="translate(484.290781 295.004375) scale(0.1 -0.1)">
      <defs>
       <path id="DejaVuSans-4d" d="M 628 4666 
L 1569 4666 
L 2759 1491 
L 3956 4666 
L 4897 4666 
L 4897 0 
L 4281 0 
L 4281 4097 
L 3078 897 
L 2444 897 
L 1241 4097 
L 1241 0 
L 628 0 
L 628 4666 
z
" transform="scale(0.015625)"/>
      </defs>
      <use xlink:href="#DejaVuSans-4d"/>
      <use xlink:href="#DejaVuSans-6f" x="86.279297"/>
      <use xlink:href="#DejaVuSans-64" x="147.460938"/>
      <use xlink:href="#DejaVuSans-65" x="210.9375"/>
      <use xlink:href="#DejaVuSans-6c" x="272.460938"/>
      <use xlink:href="#DejaVuSans-20" x="300.244141"/>
      <use xlink:href="#DejaVuSans-54" x="332.03125"/>
      <use xlink:href="#DejaVuSans-79" x="377.490234"/>
      <use xlink:href="#DejaVuSans-70" x="436.669922"/>
      <use xlink:href="#DejaVuSans-65" x="500.146484"/>
     </g>
    </g>
    <g id="line2d_42">
     <path d="M 472.557187 306.1825 
L 482.557187 306.1825 
L 492.557187 306.1825 
" style="fill: none; stroke: #7f7f7f; stroke-width: 1.5; stroke-linecap: square"/>
     <g>
      <use xlink:href="#md03d645f41" x="482.557187" y="306.1825" style="fill: #7f7f7f; stroke: #7f7f7f"/>
     </g>
    </g>
    <g id="text_25">
     <!-- UNet18 -->
     <g transform="translate(500.557187 309.6825) scale(0.1 -0.1)">
      <use xlink:href="#DejaVuSans-55"/>
      <use xlink:href="#DejaVuSans-4e" x="73.193359"/>
      <use xlink:href="#DejaVuSans-65" x="147.998047"/>
      <use xlink:href="#DejaVuSans-74" x="209.521484"/>
      <use xlink:href="#DejaVuSans-31" x="248.730469"/>
      <use xlink:href="#DejaVuSans-38" x="312.353516"/>
     </g>
    </g>
    <g id="line2d_43">
     <path d="M 472.557187 320.860625 
L 482.557187 320.860625 
L 492.557187 320.860625 
" style="fill: none; stroke-dasharray: 9.6,2.4,1.5,2.4; stroke-dashoffset: 0; stroke: #2ca02c; stroke-width: 1.5"/>
     <g>
      <use xlink:href="#m3f1f80b915" x="482.557187" y="320.860625" style="fill: #2ca02c; stroke: #2ca02c"/>
     </g>
    </g>
    <g id="text_26">
     <!-- IN-UNet18 -->
     <g transform="translate(500.557187 324.360625) scale(0.1 -0.1)">
      <use xlink:href="#DejaVuSans-49"/>
      <use xlink:href="#DejaVuSans-4e" x="29.492188"/>
      <use xlink:href="#DejaVuSans-2d" x="104.296875"/>
      <use xlink:href="#DejaVuSans-55" x="140.380859"/>
      <use xlink:href="#DejaVuSans-4e" x="213.574219"/>
      <use xlink:href="#DejaVuSans-65" x="288.378906"/>
      <use xlink:href="#DejaVuSans-74" x="349.902344"/>
      <use xlink:href="#DejaVuSans-31" x="389.111328"/>
      <use xlink:href="#DejaVuSans-38" x="452.734375"/>
     </g>
    </g>
    <g id="line2d_44">
     <path d="M 472.557187 335.53875 
L 482.557187 335.53875 
L 492.557187 335.53875 
" style="fill: none; stroke-dasharray: 5.55,2.4; stroke-dashoffset: 0; stroke: #1f77b4; stroke-width: 1.5"/>
     <g>
      <use xlink:href="#md463fd5037" x="482.557187" y="335.53875" style="fill: #1f77b4; stroke: #1f77b4"/>
     </g>
    </g>
    <g id="text_27">
     <!-- VSUNet18 -->
     <g transform="translate(500.557187 339.03875) scale(0.1 -0.1)">
      <use xlink:href="#DejaVuSans-56"/>
      <use xlink:href="#DejaVuSans-53" x="68.408203"/>
      <use xlink:href="#DejaVuSans-55" x="131.884766"/>
      <use xlink:href="#DejaVuSans-4e" x="205.078125"/>
      <use xlink:href="#DejaVuSans-65" x="279.882812"/>
      <use xlink:href="#DejaVuSans-74" x="341.40625"/>
      <use xlink:href="#DejaVuSans-31" x="380.615234"/>
      <use xlink:href="#DejaVuSans-38" x="444.238281"/>
     </g>
    </g>
   </g>
  </g>
 </g>
 <defs>
  <clipPath id="pd32472113f">
   <rect x="50.104688" y="20.798437" width="511.09" height="329.32"/>
  </clipPath>
 </defs>
</svg>
