<?xml version="1.0" encoding="utf-8" standalone="no"?>
<!DOCTYPE svg PUBLIC "-//W3C//DTD SVG 1.1//EN"
  "http://www.w3.org/Graphics/SVG/1.1/DTD/svg11.dtd">
<svg xmlns:xlink="http://www.w3.org/1999/xlink" width="636.388125pt" height="384.497812pt" viewBox="0 0 636.388125 384.497812" xmlns="http://www.w3.org/2000/svg" version="1.1">
 <metadata>
  <rdf:RDF xmlns:dc="http://purl.org/dc/elements/1.1/" xmlns:cc="http://creativecommons.org/ns#" xmlns:rdf="http://www.w3.org/1999/02/22-rdf-syntax-ns#">
   <cc:Work>
    <dc:type rdf:resource="http://purl.org/dc/dcmitype/StillImage"/>
    <dc:date>2026-07-24T01:38:16.952984</dc:date>
    <dc:format>image/svg+xml</dc:format>
    <dc:creator>
     <cc:Agent>
      <dc:title>Matplotlib v3.10.0, https://matplotlib.org/</dc:title>
     </cc:Agent>
    </dc:creator>
   </cc:Work>
  </rdf:RDF>
 </metadata>
 <defs>
  <style type="text/css">*{stroke-linejoin: round; stroke-linecap: butt}</style>
 </defs>
 <g id="figure_1">
  <g id="patch_1">
   <path d="M 0 384.497812 
L 636.388125 384.497812 
L 636.388125 0 
L 0 0 
L 0 384.497812 
z
" style="fill: none"/>
  </g>
  <g id="axes_1">
   <g id="patch_2">
    <path d="M 54.708125 334.36 
L 629.188125 334.36 
L 629.188125 7.2 
L 54.708125 7.2 
z
" style="fill: #ffffff"/>
   </g>
   <g id="matplotlib.axis_1">
    <g id="xtick_1">
     <g id="line2d_1">
      <path d="M 115.637822 334.36 
L 115.637822 7.2 
" clip-path="url(#p563982e2a3)" style="fill: none; stroke: #e2e8f0; stroke-opacity: 0.9; stroke-width: 0.8; stroke-linecap: square"/>
     </g>
     <g id="line2d_2">
      <defs>
       <path id="mcd9553ade9" d="M 0 0 
L 0 3.5 
" style="stroke: #000000; stroke-width: 0.8"/>
      </defs>
      <g>
       <use xlink:href="#mcd9553ade9" x="115.637822" y="334.36" style="stroke: #000000; stroke-width: 0.8"/>
      </g>
     </g>
     <g id="text_1">
      <text style="font-size: 15px; font-family: 'DejaVu Sans', 'Bitstream Vera Sans', 'Computer Modern Sans Serif', 'Lucida Grande', 'Verdana', 'Geneva', 'Lucid', 'Arial', 'Helvetica', 'Avant Garde', sans-serif; text-anchor: middle" x="115.637822" y="352.757656" transform="rotate(-0 115.637822 352.757656)">2</text>
     </g>
    </g>
    <g id="xtick_2">
     <g id="line2d_3">
      <path d="M 185.271761 334.36 
L 185.271761 7.2 
" clip-path="url(#p563982e2a3)" style="fill: none; stroke: #e2e8f0; stroke-opacity: 0.9; stroke-width: 0.8; stroke-linecap: square"/>
     </g>
     <g id="line2d_4">
      <g>
       <use xlink:href="#mcd9553ade9" x="185.271761" y="334.36" style="stroke: #000000; stroke-width: 0.8"/>
      </g>
     </g>
     <g id="text_2">
      <text style="font-size: 15px; font-family: 'DejaVu Sans', 'Bitstream Vera Sans', 'Computer Modern Sans Serif', 'Lucida Grande', 'Verdana', 'Geneva', 'Lucid', 'Arial', 'Helvetica', 'Avant Garde', sans-serif; text-anchor: middle" x="185.271761" y="352.757656" transform="rotate(-0 185.271761 352.757656)">4</text>
     </g>
    </g>
    <g id="xtick_3">
     <g id="line2d_5">
      <path d="M 254.905701 334.36 
L 254.905701 7.2 
" clip-path="url(#p563982e2a3)" style="fill: none; stroke: #e2e8f0; stroke-opacity: 0.9; stroke-width: 0.8; stroke-linecap: square"/>
     </g>
     <g id="line2d_6">
      <g>
       <use xlink:href="#mcd9553ade9" x="254.905701" y="334.36" style="stroke: #000000; stroke-width: 0.8"/>
      </g>
     </g>
     <g id="text_3">
      <text style="font-size: 15px; font-family: 'DejaVu Sans', 'Bitstream Vera Sans', 'Computer Modern Sans Serif', 'Lucida Grande', 'Verdana', 'Geneva', 'Lucid', 'Arial', 'Helvetica', 'Avant Garde', sans-serif; text-anchor: middle" x="254.905701" y="352.757656" transform="rotate(-0 254.905701 352.757656)">6</text>
     </g>
    </g>
    <g id="xtick_4">
     <g id="line2d_7">
      <path d="M 324.53964 334.36 
L 324.53964 7.2 
" clip-path="url(#p563982e2a3)" style="fill: none; stroke: #e2e8f0; stroke-opacity: 0.9; stroke-width: 0.8; stroke-linecap: square"/>
     </g>
     <g id="line2d_8">
      <g>
       <use xlink:href="#mcd9553ade9" x="324.53964" y="334.36" style="stroke: #000000; stroke-width: 0.8"/>
      </g>
     </g>
     <g id="text_4">
      <text style="font-size: 15px; font-family: 'DejaVu Sans', 'Bitstream Vera Sans', 'Computer Modern Sans Serif', 'Lucida Grande', 'Verdana', 'Geneva', 'Lucid', 'Arial', 'Helvetica', 'Avant Garde', sans-serif; text-anchor: middle" x="324.53964" y="352.757656" transform="rotate(-0 324.53964 352.757656)">8</text>
     </g>
    </g>
    <g id="xtick_5">
     <g id="line2d_9">
      <path d="M 394.17358 334.36 
L 394.17358 7.2 
" clip-path="url(#p563982e2a3)" style="fill: none; stroke: #e2e8f0; stroke-opacity: 0.9; stroke-width: 0.8; stroke-linecap: square"/>
     </g>
     <g id="line2d_10">
      <g>
       <use xlink:href="#mcd9553ade9" x="394.17358" y="334.36" style="stroke: #000000; stroke-width: 0.8"/>
      </g>
     </g>
     <g id="text_5">
      <text style="font-size: 15px; font-family: 'DejaVu Sans', 'Bitstream Vera Sans', 'Computer Modern Sans Serif', 'Lucida Grande', 'Verdana', 'Geneva', 'Lucid', 'Arial', 'Helvetica', 'Avant Garde', sans-serif; text-anchor: middle" x="394.17358" y="352.757656" transform="rotate(-0 394.17358 352.757656)">10</text>
     </g>
    </g>
    <g id="xtick_6">
     <g id="line2d_11">
      <path d="M 463.807519 334.36 
L 463.807519 7.2 
" clip-path="url(#p563982e2a3)" style="fill: none; stroke: #e2e8f0; stroke-opacity: 0.9; stroke-width: 0.8; stroke-linecap: square"/>
     </g>
     <g id="line2d_12">
      <g>
       <use xlink:href="#mcd9553ade9" x="463.807519" y="334.36" style="stroke: #000000; stroke-width: 0.8"/>
      </g>
     </g>
     <g id="text_6">
      <text style="font-size: 15px; font-family: 'DejaVu Sans', 'Bitstream Vera Sans', 'Computer Modern Sans Serif', 'Lucida Grande', 'Verdana', 'Geneva', 'Lucid', 'Arial', 'Helvetica', 'Avant Garde', sans-serif; text-anchor: middle" x="463.807519" y="352.757656" transform="rotate(-0 463.807519 352.757656)">12</text>
     </g>
    </g>
    <g id="xtick_7">
     <g id="line2d_13">
      <path d="M 533.441458 334.36 
L 533.441458 7.2 
" clip-path="url(#p563982e2a3)" style="fill: none; stroke: #e2e8f0; stroke-opacity: 0.9; stroke-width: 0.8; stroke-linecap: square"/>
     </g>
     <g id="line2d_14">
      <g>
       <use xlink:href="#mcd9553ade9" x="533.441458" y="334.36" style="stroke: #000000; stroke-width: 0.8"/>
      </g>
     </g>
     <g id="text_7">
      <text style="font-size: 15px; font-family: 'DejaVu Sans', 'Bitstream Vera Sans', 'Computer Modern Sans Serif', 'Lucida Grande', 'Verdana', 'Geneva', 'Lucid', 'Arial', 'Helvetica', 'Avant Garde', sans-serif; text-anchor: middle" x="533.441458" y="352.757656" transform="rotate(-0 533.441458 352.757656)">14</text>
     </g>
    </g>
    <g id="xtick_8">
     <g id="line2d_15">
      <path d="M 603.075398 334.36 
L 603.075398 7.2 
" clip-path="url(#p563982e2a3)" style="fill: none; stroke: #e2e8f0; stroke-opacity: 0.9; stroke-width: 0.8; stroke-linecap: square"/>
     </g>
     <g id="line2d_16">
      <g>
       <use xlink:href="#mcd9553ade9" x="603.075398" y="334.36" style="stroke: #000000; stroke-width: 0.8"/>
      </g>
     </g>
     <g id="text_8">
      <text style="font-size: 15px; font-family: 'DejaVu Sans', 'Bitstream Vera Sans', 'Computer Modern Sans Serif', 'Lucida Grande', 'Verdana', 'Geneva', 'Lucid', 'Arial', 'Helvetica', 'Avant Garde', sans-serif; text-anchor: middle" x="603.075398" y="352.757656" transform="rotate(-0 603.075398 352.757656)">16</text>
     </g>
    </g>
    <g id="text_9">
     <text style="font-size: 18px; font-family: 'DejaVu Sans', 'Bitstream Vera Sans', 'Computer Modern Sans Serif', 'Lucida Grande', 'Verdana', 'Geneva', 'Lucid', 'Arial', 'Helvetica', 'Avant Garde', sans-serif; text-anchor: middle" x="341.948125" y="373.554375" transform="rotate(-0 341.948125 373.554375)"># Samples</text>
    </g>
   </g>
   <g id="matplotlib.axis_2">
    <g id="ytick_1">
     <g id="line2d_17">
      <path d="M 54.708125 334.36 
L 629.188125 334.36 
" clip-path="url(#p563982e2a3)" style="fill: none; stroke: #e2e8f0; stroke-opacity: 0.9; stroke-width: 0.8; stroke-linecap: square"/>
     </g>
     <g id="line2d_18">
      <defs>
       <path id="ma4754d7143" d="M 0 0 
L -3.5 0 
" style="stroke: #000000; stroke-width: 0.8"/>
      </defs>
      <g>
       <use xlink:href="#ma4754d7143" x="54.708125" y="334.36" style="stroke: #000000; stroke-width: 0.8"/>
      </g>
     </g>
     <g id="text_10">
      <text style="font-size: 15px; font-family: 'DejaVu Sans', 'Bitstream Vera Sans', 'Computer Modern Sans Serif', 'Lucida Grande', 'Verdana', 'Geneva', 'Lucid', 'Arial', 'Helvetica', 'Avant Garde', sans-serif; text-anchor: end" x="47.708125" y="340.058828" transform="rotate(-0 47.708125 340.058828)">64</text>
     </g>
    </g>
    <g id="ytick_2">
     <g id="line2d_19">
      <path d="M 54.708125 295.870588 
L 629.188125 295.870588 
" clip-path="url(#p563982e2a3)" style="fill: none; stroke: #e2e8f0; stroke-opacity: 0.9; stroke-width: 0.8; stroke-linecap: square"/>
     </g>
     <g id="line2d_20">
      <g>
       <use xlink:href="#ma4754d7143" x="54.708125" y="295.870588" style="stroke: #000000; stroke-width: 0.8"/>
      </g>
     </g>
     <g id="text_11">
      <text style="font-size: 15px; font-family: 'DejaVu Sans', 'Bitstream Vera Sans', 'Computer Modern Sans Serif', 'Lucida Grande', 'Verdana', 'Geneva', 'Lucid', 'Arial', 'Helvetica', 'Avant Garde', sans-serif; text-anchor: end" x="47.708125" y="301.569416" transform="rotate(-0 47.708125 301.569416)">66</text>
     </g>
    </g>
    <g id="ytick_3">
     <g id="line2d_21">
      <path d="M 54.708125 257.381176 
L 629.188125 257.381176 
" clip-path="url(#p563982e2a3)" style="fill: none; stroke: #e2e8f0; stroke-opacity: 0.9; stroke-width: 0.8; stroke-linecap: square"/>
     </g>
     <g id="line2d_22">
      <g>
       <use xlink:href="#ma4754d7143" x="54.708125" y="257.381176" style="stroke: #000000; stroke-width: 0.8"/>
      </g>
     </g>
     <g id="text_12">
      <text style="font-size: 15px; font-family: 'DejaVu Sans', 'Bitstream Vera Sans', 'Computer Modern Sans Serif', 'Lucida Grande', 'Verdana', 'Geneva', 'Lucid', 'Arial', 'Helvetica', 'Avant Garde', sans-serif; text-anchor: end" x="47.708125" y="263.080005" transform="rotate(-0 47.708125 263.080005)">68</text>
     </g>
    </g>
    <g id="ytick_4">
     <g id="line2d_23">
      <path d="M 54.708125 218.891765 
L 629.188125 218.891765 
" clip-path="url(#p563982e2a3)" style="fill: none; stroke: #e2e8f0; stroke-opacity: 0.9; stroke-width: 0.8; stroke-linecap: square"/>
     </g>
     <g id="line2d_24">
      <g>
       <use xlink:href="#ma4754d7143" x="54.708125" y="218.891765" style="stroke: #000000; stroke-width: 0.8"/>
      </g>
     </g>
     <g id="text_13">
      <text style="font-size: 15px; font-family: 'DejaVu Sans', 'Bitstream Vera Sans', 'Computer Modern Sans Serif', 'Lucida Grande', 'Verdana', 'Geneva', 'Lucid', 'Arial', 'Helvetica', 'Avant Garde', sans-serif; text-anchor: end" x="47.708125" y="224.590593" transform="rotate(-0 47.708125 224.590593)">70</text>
     </g>
    </g>
    <g id="ytick_5">
     <g id="line2d_25">
      <path d="M 54.708125 180.402353 
L 629.188125 180.402353 
" clip-path="url(#p563982e2a3)" style="fill: none; stroke: #e2e8f0; stroke-opacity: 0.9; stroke-width: 0.8; stroke-linecap: square"/>
     </g>
     <g id="line2d_26">
      <g>
       <use xlink:href="#ma4754d7143" x="54.708125" y="180.402353" style="stroke: #000000; stroke-width: 0.8"/>
      </g>
     </g>
     <g id="text_14">
      <text style="font-size: 15px; font-family: 'DejaVu Sans', 'Bitstream Vera Sans', 'Computer Modern Sans Serif', 'Lucida Grande', 'Verdana', 'Geneva', 'Lucid', 'Arial', 'Helvetica', 'Avant Garde', sans-serif; text-anchor: end" x="47.708125" y="186.101181" transform="rotate(-0 47.708125 186.101181)">72</text>
     </g>
    </g>
    <g id="ytick_6">
     <g id="line2d_27">
      <path d="M 54.708125 141.912941 
L 629.188125 141.912941 
" clip-path="url(#p563982e2a3)" style="fill: none; stroke: #e2e8f0; stroke-opacity: 0.9; stroke-width: 0.8; stroke-linecap: square"/>
     </g>
     <g id="line2d_28">
      <g>
       <use xlink:href="#ma4754d7143" x="54.708125" y="141.912941" style="stroke: #000000; stroke-width: 0.8"/>
      </g>
     </g>
     <g id="text_15">
      <text style="font-size: 15px; font-family: 'DejaVu Sans', 'Bitstream Vera Sans', 'Computer Modern Sans Serif', 'Lucida Grande', 'Verdana', 'Geneva', 'Lucid', 'Arial', 'Helvetica', 'Avant Garde', sans-serif; text-anchor: end" x="47.708125" y="147.611769" transform="rotate(-0 47.708125 147.611769)">74</text>
     </g>
    </g>
    <g id="ytick_7">
     <g id="line2d_29">
      <path d="M 54.708125 103.423529 
L 629.188125 103.423529 
" clip-path="url(#p563982e2a3)" style="fill: none; stroke: #e2e8f0; stroke-opacity: 0.9; stroke-width: 0.8; stroke-linecap: square"/>
     </g>
     <g id="line2d_30">
      <g>
       <use xlink:href="#ma4754d7143" x="54.708125" y="103.423529" style="stroke: #000000; stroke-width: 0.8"/>
      </g>
     </g>
     <g id="text_16">
      <text style="font-size: 15px; font-family: 'DejaVu Sans', 'Bitstream Vera Sans', 'Computer Modern Sans Serif', 'Lucida Grande', 'Verdana', 'Geneva', 'Lucid', 'Arial', 'Helvetica', 'Avant Garde', sans-serif; text-anchor: end" x="47.708125" y="109.122358" transform="rotate(-0 47.708125 109.122358)">76</text>
     </g>
    </g>
    <g id="ytick_8">
     <g id="line2d_31">
      <path d="M 54.708125 64.934118 
L 629.188125 64.934118 
" clip-path="url(#p563982e2a3)" style="fill: none; stroke: #e2e8f0; stroke-opacity: 0.9; stroke-width: 0.8; stroke-linecap: square"/>
     </g>
     <g id="line2d_32">
      <g>
       <use xlink:href="#ma4754d7143" x="54.708125" y="64.934118" style="stroke: #000000; stroke-width: 0.8"/>
      </g>
     </g>
     <g id="text_17">
      <text style="font-size: 15px; font-family: 'DejaVu Sans', 'Bitstream Vera Sans', 'Computer Modern Sans Serif', 'Lucida Grande', 'Verdana', 'Geneva', 'Lucid', 'Arial', 'Helvetica', 'Avant Garde', sans-serif; text-anchor: end" x="47.708125" y="70.632946" transform="rotate(-0 47.708125 70.632946)">78</text>
     </g>
    </g>
    <g id="ytick_9">
     <g id="line2d_33">
      <path d="M 54.708125 26.444706 
L 629.188125 26.444706 
" clip-path="url(#p563982e2a3)" style="fill: none; stroke: #e2e8f0; stroke-opacity: 0.9; stroke-width: 0.8; stroke-linecap: square"/>
     </g>
     <g id="line2d_34">
      <g>
       <use xlink:href="#ma4754d7143" x="54.708125" y="26.444706" style="stroke: #000000; stroke-width: 0.8"/>
      </g>
     </g>
     <g id="text_18">
      <text style="font-size: 15px; font-family: 'DejaVu Sans', 'Bitstream Vera Sans', 'Computer Modern Sans Serif', 'Lucida Grande', 'Verdana', 'Geneva', 'Lucid', 'Arial', 'Helvetica', 'Avant Garde', sans-serif; text-anchor: end" x="47.708125" y="32.143534" transform="rotate(-0 47.708125 32.143534)">80</text>
     </g>
    </g>
    <g id="text_19">
     <text style="font-size: 18px; font-family: 'DejaVu Sans', 'Bitstream Vera Sans', 'Computer Modern Sans Serif', 'Lucida Grande', 'Verdana', 'Geneva', 'Lucid', 'Arial', 'Helvetica', 'Avant Garde', sans-serif; text-anchor: middle" x="20.877188" y="170.78" transform="rotate(-90 20.877188 170.78)">Dice (%)</text>
    </g>
   </g>
   <g id="FillBetweenPolyCollection_1">
    <defs>
     <path id="m763e32d60a" d="M 80.820852 -287.249215 
L 80.820852 -280.23958 
L 115.637822 -291.015107 
L 185.271761 -324.780696 
L 254.905701 -327.916949 
L 324.53964 -334.378848 
L 394.17358 -339.37136 
L 463.807519 -345.168461 
L 533.441458 -348.137618 
L 603.075398 -352.203818 
L 603.075398 -352.957396 
L 603.075398 -352.957396 
L 533.441458 -349.629341 
L 463.807519 -348.50971 
L 394.17358 -344.118685 
L 324.53964 -337.064763 
L 254.905701 -331.298246 
L 185.271761 -326.855458 
L 115.637822 -299.311405 
L 80.820852 -287.249215 
z
"/>
    </defs>
    <g clip-path="url(#p563982e2a3)">
     <use xlink:href="#m763e32d60a" x="0" y="384.497812" style="fill: #82bbe4; fill-opacity: 0.15"/>
    </g>
   </g>
   <g id="FillBetweenPolyCollection_2">
    <defs>
     <path id="mbb8d71cf19" d="M 80.820852 -274.6145 
L 80.820852 -259.713342 
L 115.637822 -292.226233 
L 185.271761 -326.542413 
L 254.905701 -333.35668 
L 324.53964 -347.447202 
L 394.17358 -345.76716 
L 463.807519 -349.728214 
L 533.441458 -353.354606 
L 603.075398 -355.905008 
L 603.075398 -356.711249 
L 603.075398 -356.711249 
L 533.441458 -355.299093 
L 463.807519 -352.945302 
L 394.17358 -350.010231 
L 324.53964 -349.750643 
L 254.905701 -336.967832 
L 185.271761 -328.871508 
L 115.637822 -299.531371 
L 80.820852 -274.6145 
z
"/>
    </defs>
    <g clip-path="url(#p563982e2a3)">
     <use xlink:href="#mbb8d71cf19" x="0" y="384.497812" style="fill: #1f77b4; fill-opacity: 0.15"/>
    </g>
   </g>
   <g id="FillBetweenPolyCollection_3">
    <defs>
     <path id="md84640653d" d="M 80.820852 -221.377951 
L 80.820852 -186.563863 
L 115.637822 -270.927004 
L 185.271761 -302.766928 
L 254.905701 -307.354249 
L 324.53964 -321.323173 
L 394.17358 -333.572176 
L 463.807519 -336.695442 
L 533.441458 -340.989891 
L 603.075398 -345.555868 
L 603.075398 -348.305275 
L 603.075398 -348.305275 
L 533.441458 -344.551855 
L 463.807519 -340.683713 
L 394.17358 -337.194621 
L 324.53964 -326.127667 
L 254.905701 -313.950733 
L 185.271761 -307.837772 
L 115.637822 -280.818433 
L 80.820852 -221.377951 
z
"/>
    </defs>
    <g clip-path="url(#p563982e2a3)">
     <use xlink:href="#md84640653d" x="0" y="384.497812" style="fill: #518f22; fill-opacity: 0.15"/>
    </g>
   </g>
   <g id="FillBetweenPolyCollection_4">
    <defs>
     <path id="m09b2d0b83e" d="M 80.820852 -245.499434 
L 80.820852 -219.14334 
L 115.637822 -278.297989 
L 185.271761 -303.650467 
L 254.905701 -317.222669 
L 324.53964 -325.255342 
L 394.17358 -337.248392 
L 463.807519 -337.356762 
L 533.441458 -339.113961 
L 603.075398 -342.395124 
L 603.075398 -343.480117 
L 603.075398 -343.480117 
L 533.441458 -340.635292 
L 463.807519 -339.787322 
L 394.17358 -339.703197 
L 324.53964 -328.752852 
L 254.905701 -320.494282 
L 185.271761 -306.594069 
L 115.637822 -285.952986 
L 80.820852 -245.499434 
z
"/>
    </defs>
    <g clip-path="url(#p563982e2a3)">
     <use xlink:href="#m09b2d0b83e" x="0" y="384.497812" style="fill: #7cd87c; fill-opacity: 0.15"/>
    </g>
   </g>
   <g id="FillBetweenPolyCollection_5">
    <defs>
     <path id="mdd929c0afa" d="M 80.820852 -136.147504 
L 80.820852 -61.689817 
L 115.637822 -191.178569 
L 185.271761 -283.586059 
L 254.905701 -294.337908 
L 324.53964 -310.79787 
L 394.17358 -321.801479 
L 463.807519 -322.87402 
L 533.441458 -322.50258 
L 603.075398 -325.577119 
L 603.075398 -327.835146 
L 603.075398 -327.835146 
L 533.441458 -325.216018 
L 463.807519 -326.361336 
L 394.17358 -326.375736 
L 324.53964 -316.782919 
L 254.905701 -302.365938 
L 185.271761 -292.903308 
L 115.637822 -218.294188 
L 80.820852 -136.147504 
z
"/>
    </defs>
    <g clip-path="url(#p563982e2a3)">
     <use xlink:href="#mdd929c0afa" x="0" y="384.497812" style="fill: #9467bd; fill-opacity: 0.15"/>
    </g>
   </g>
   <g id="FillBetweenPolyCollection_6">
    <defs>
     <path id="mf2ec62937a" d="M 80.820852 -131.211708 
L 80.820852 -36.638658 
L 115.637822 -197.013414 
L 185.271761 -229.874626 
L 254.905701 -243.622776 
L 324.53964 -251.784166 
L 394.17358 -284.395499 
L 463.807519 -291.427871 
L 533.441458 -304.467352 
L 603.075398 -307.328902 
L 603.075398 -311.752026 
L 603.075398 -311.752026 
L 533.441458 -310.597643 
L 463.807519 -297.747036 
L 394.17358 -291.197377 
L 324.53964 -258.636838 
L 254.905701 -251.783072 
L 185.271761 -236.138493 
L 115.637822 -213.386832 
L 80.820852 -131.211708 
z
"/>
    </defs>
    <g clip-path="url(#p563982e2a3)">
     <use xlink:href="#mf2ec62937a" x="0" y="384.497812" style="fill: #8a8a8a; fill-opacity: 0.15"/>
    </g>
   </g>
   <g id="FillBetweenPolyCollection_7">
    <defs>
     <path id="m18ebcdf0f1" d="M 80.820852 -158.015391 
L 80.820852 -112.650697 
L 115.637822 -224.689553 
L 185.271761 -254.564389 
L 254.905701 -263.799314 
L 324.53964 -274.937483 
L 394.17358 -316.309648 
L 463.807519 -316.498875 
L 533.441458 -318.327845 
L 603.075398 -321.664775 
L 603.075398 -323.39963 
L 603.075398 -323.39963 
L 533.441458 -320.423686 
L 463.807519 -319.092752 
L 394.17358 -319.383634 
L 324.53964 -278.064792 
L 254.905701 -268.669413 
L 185.271761 -258.914767 
L 115.637822 -236.25951 
L 80.820852 -158.015391 
z
"/>
    </defs>
    <g clip-path="url(#p563982e2a3)">
     <use xlink:href="#m18ebcdf0f1" x="0" y="384.497812" style="fill: #515151; fill-opacity: 0.15"/>
    </g>
   </g>
   <g id="line2d_35">
    <path d="M 80.820852 100.753415 
L 115.637822 89.334556 
L 185.271761 58.679736 
L 254.905701 54.890215 
L 324.53964 48.776007 
L 394.17358 42.75279 
L 463.807519 37.658727 
L 533.441458 35.614333 
L 603.075398 31.917206 
" clip-path="url(#p563982e2a3)" style="fill: none; stroke: #82bbe4; stroke-width: 2; stroke-linecap: square"/>
    <defs>
     <path id="mc969c5cc08" d="M 0 3 
C 0.795609 3 1.55874 2.683901 2.12132 2.12132 
C 2.683901 1.55874 3 0.795609 3 0 
C 3 -0.795609 2.683901 -1.55874 2.12132 -2.12132 
C 1.55874 -2.683901 0.795609 -3 0 -3 
C -0.795609 -3 -1.55874 -2.683901 -2.12132 -2.12132 
C -2.683901 -1.55874 -3 -0.795609 -3 0 
C -3 0.795609 -2.683901 1.55874 -2.12132 2.12132 
C -1.55874 2.683901 -0.795609 3 0 3 
z
" style="stroke: #82bbe4"/>
    </defs>
    <g clip-path="url(#p563982e2a3)">
     <use xlink:href="#mc969c5cc08" x="80.820852" y="100.753415" style="fill: #82bbe4; stroke: #82bbe4"/>
     <use xlink:href="#mc969c5cc08" x="115.637822" y="89.334556" style="fill: #82bbe4; stroke: #82bbe4"/>
     <use xlink:href="#mc969c5cc08" x="185.271761" y="58.679736" style="fill: #82bbe4; stroke: #82bbe4"/>
     <use xlink:href="#mc969c5cc08" x="254.905701" y="54.890215" style="fill: #82bbe4; stroke: #82bbe4"/>
     <use xlink:href="#mc969c5cc08" x="324.53964" y="48.776007" style="fill: #82bbe4; stroke: #82bbe4"/>
     <use xlink:href="#mc969c5cc08" x="394.17358" y="42.75279" style="fill: #82bbe4; stroke: #82bbe4"/>
     <use xlink:href="#mc969c5cc08" x="463.807519" y="37.658727" style="fill: #82bbe4; stroke: #82bbe4"/>
     <use xlink:href="#mc969c5cc08" x="533.441458" y="35.614333" style="fill: #82bbe4; stroke: #82bbe4"/>
     <use xlink:href="#mc969c5cc08" x="603.075398" y="31.917206" style="fill: #82bbe4; stroke: #82bbe4"/>
    </g>
   </g>
   <g id="line2d_36">
    <path d="M 80.820852 117.333892 
L 115.637822 88.619011 
L 185.271761 56.790852 
L 254.905701 49.335557 
L 324.53964 35.89889 
L 394.17358 36.609117 
L 463.807519 33.161054 
L 533.441458 30.170963 
L 603.075398 28.189684 
" clip-path="url(#p563982e2a3)" style="fill: none; stroke: #1f77b4; stroke-width: 2; stroke-linecap: square"/>
    <defs>
     <path id="m59cf92a7e9" d="M 0 3 
C 0.795609 3 1.55874 2.683901 2.12132 2.12132 
C 2.683901 1.55874 3 0.795609 3 0 
C 3 -0.795609 2.683901 -1.55874 2.12132 -2.12132 
C 1.55874 -2.683901 0.795609 -3 0 -3 
C -0.795609 -3 -1.55874 -2.683901 -2.12132 -2.12132 
C -2.683901 -1.55874 -3 -0.795609 -3 0 
C -3 0.795609 -2.683901 1.55874 -2.12132 2.12132 
C -1.55874 2.683901 -0.795609 3 0 3 
z
" style="stroke: #1f77b4"/>
    </defs>
    <g clip-path="url(#p563982e2a3)">
     <use xlink:href="#m59cf92a7e9" x="80.820852" y="117.333892" style="fill: #1f77b4; stroke: #1f77b4"/>
     <use xlink:href="#m59cf92a7e9" x="115.637822" y="88.619011" style="fill: #1f77b4; stroke: #1f77b4"/>
     <use xlink:href="#m59cf92a7e9" x="185.271761" y="56.790852" style="fill: #1f77b4; stroke: #1f77b4"/>
     <use xlink:href="#m59cf92a7e9" x="254.905701" y="49.335557" style="fill: #1f77b4; stroke: #1f77b4"/>
     <use xlink:href="#m59cf92a7e9" x="324.53964" y="35.89889" style="fill: #1f77b4; stroke: #1f77b4"/>
     <use xlink:href="#m59cf92a7e9" x="394.17358" y="36.609117" style="fill: #1f77b4; stroke: #1f77b4"/>
     <use xlink:href="#m59cf92a7e9" x="463.807519" y="33.161054" style="fill: #1f77b4; stroke: #1f77b4"/>
     <use xlink:href="#m59cf92a7e9" x="533.441458" y="30.170963" style="fill: #1f77b4; stroke: #1f77b4"/>
     <use xlink:href="#m59cf92a7e9" x="603.075398" y="28.189684" style="fill: #1f77b4; stroke: #1f77b4"/>
    </g>
   </g>
   <g id="line2d_37">
    <path d="M 80.820852 180.526905 
L 115.637822 108.625094 
L 185.271761 79.195462 
L 254.905701 73.845322 
L 324.53964 60.772393 
L 394.17358 49.114414 
L 463.807519 45.808235 
L 533.441458 41.72694 
L 603.075398 37.567241 
" clip-path="url(#p563982e2a3)" style="fill: none; stroke: #518f22; stroke-width: 2; stroke-linecap: square"/>
    <defs>
     <path id="md6a56107e8" d="M 0 3 
C 0.795609 3 1.55874 2.683901 2.12132 2.12132 
C 2.683901 1.55874 3 0.795609 3 0 
C 3 -0.795609 2.683901 -1.55874 2.12132 -2.12132 
C 1.55874 -2.683901 0.795609 -3 0 -3 
C -0.795609 -3 -1.55874 -2.683901 -2.12132 -2.12132 
C -2.683901 -1.55874 -3 -0.795609 -3 0 
C -3 0.795609 -2.683901 1.55874 -2.12132 2.12132 
C -1.55874 2.683901 -0.795609 3 0 3 
z
" style="stroke: #518f22"/>
    </defs>
    <g clip-path="url(#p563982e2a3)">
     <use xlink:href="#md6a56107e8" x="80.820852" y="180.526905" style="fill: #518f22; stroke: #518f22"/>
     <use xlink:href="#md6a56107e8" x="115.637822" y="108.625094" style="fill: #518f22; stroke: #518f22"/>
     <use xlink:href="#md6a56107e8" x="185.271761" y="79.195462" style="fill: #518f22; stroke: #518f22"/>
     <use xlink:href="#md6a56107e8" x="254.905701" y="73.845322" style="fill: #518f22; stroke: #518f22"/>
     <use xlink:href="#md6a56107e8" x="324.53964" y="60.772393" style="fill: #518f22; stroke: #518f22"/>
     <use xlink:href="#md6a56107e8" x="394.17358" y="49.114414" style="fill: #518f22; stroke: #518f22"/>
     <use xlink:href="#md6a56107e8" x="463.807519" y="45.808235" style="fill: #518f22; stroke: #518f22"/>
     <use xlink:href="#md6a56107e8" x="533.441458" y="41.72694" style="fill: #518f22; stroke: #518f22"/>
     <use xlink:href="#md6a56107e8" x="603.075398" y="37.567241" style="fill: #518f22; stroke: #518f22"/>
    </g>
   </g>
   <g id="line2d_38">
    <path d="M 80.820852 152.176425 
L 115.637822 102.372325 
L 185.271761 79.375544 
L 254.905701 65.639337 
L 324.53964 57.493716 
L 394.17358 46.022018 
L 463.807519 45.925771 
L 533.441458 44.623186 
L 603.075398 41.560192 
" clip-path="url(#p563982e2a3)" style="fill: none; stroke: #7cd87c; stroke-width: 2; stroke-linecap: square"/>
    <defs>
     <path id="m91460ce9b7" d="M 0 3 
C 0.795609 3 1.55874 2.683901 2.12132 2.12132 
C 2.683901 1.55874 3 0.795609 3 0 
C 3 -0.795609 2.683901 -1.55874 2.12132 -2.12132 
C 1.55874 -2.683901 0.795609 -3 0 -3 
C -0.795609 -3 -1.55874 -2.683901 -2.12132 -2.12132 
C -2.683901 -1.55874 -3 -0.795609 -3 0 
C -3 0.795609 -2.683901 1.55874 -2.12132 2.12132 
C -1.55874 2.683901 -0.795609 3 0 3 
z
" style="stroke: #7cd87c"/>
    </defs>
    <g clip-path="url(#p563982e2a3)">
     <use xlink:href="#m91460ce9b7" x="80.820852" y="152.176425" style="fill: #7cd87c; stroke: #7cd87c"/>
     <use xlink:href="#m91460ce9b7" x="115.637822" y="102.372325" style="fill: #7cd87c; stroke: #7cd87c"/>
     <use xlink:href="#m91460ce9b7" x="185.271761" y="79.375544" style="fill: #7cd87c; stroke: #7cd87c"/>
     <use xlink:href="#m91460ce9b7" x="254.905701" y="65.639337" style="fill: #7cd87c; stroke: #7cd87c"/>
     <use xlink:href="#m91460ce9b7" x="324.53964" y="57.493716" style="fill: #7cd87c; stroke: #7cd87c"/>
     <use xlink:href="#m91460ce9b7" x="394.17358" y="46.022018" style="fill: #7cd87c; stroke: #7cd87c"/>
     <use xlink:href="#m91460ce9b7" x="463.807519" y="45.925771" style="fill: #7cd87c; stroke: #7cd87c"/>
     <use xlink:href="#m91460ce9b7" x="533.441458" y="44.623186" style="fill: #7cd87c; stroke: #7cd87c"/>
     <use xlink:href="#m91460ce9b7" x="603.075398" y="41.560192" style="fill: #7cd87c; stroke: #7cd87c"/>
    </g>
   </g>
   <g id="line2d_39">
    <path d="M 80.820852 285.579152 
L 115.637822 179.761434 
L 185.271761 96.253129 
L 254.905701 86.145889 
L 324.53964 70.707418 
L 394.17358 60.409205 
L 463.807519 59.880135 
L 533.441458 60.638514 
L 603.075398 57.79168 
" clip-path="url(#p563982e2a3)" style="fill: none; stroke: #9467bd; stroke-width: 2; stroke-linecap: square"/>
    <defs>
     <path id="m58a9142645" d="M 0 3 
C 0.795609 3 1.55874 2.683901 2.12132 2.12132 
C 2.683901 1.55874 3 0.795609 3 0 
C 3 -0.795609 2.683901 -1.55874 2.12132 -2.12132 
C 1.55874 -2.683901 0.795609 -3 0 -3 
C -0.795609 -3 -1.55874 -2.683901 -2.12132 -2.12132 
C -2.683901 -1.55874 -3 -0.795609 -3 0 
C -3 0.795609 -2.683901 1.55874 -2.12132 2.12132 
C -1.55874 2.683901 -0.795609 3 0 3 
z
" style="stroke: #9467bd"/>
    </defs>
    <g clip-path="url(#p563982e2a3)">
     <use xlink:href="#m58a9142645" x="80.820852" y="285.579152" style="fill: #9467bd; stroke: #9467bd"/>
     <use xlink:href="#m58a9142645" x="115.637822" y="179.761434" style="fill: #9467bd; stroke: #9467bd"/>
     <use xlink:href="#m58a9142645" x="185.271761" y="96.253129" style="fill: #9467bd; stroke: #9467bd"/>
     <use xlink:href="#m58a9142645" x="254.905701" y="86.145889" style="fill: #9467bd; stroke: #9467bd"/>
     <use xlink:href="#m58a9142645" x="324.53964" y="70.707418" style="fill: #9467bd; stroke: #9467bd"/>
     <use xlink:href="#m58a9142645" x="394.17358" y="60.409205" style="fill: #9467bd; stroke: #9467bd"/>
     <use xlink:href="#m58a9142645" x="463.807519" y="59.880135" style="fill: #9467bd; stroke: #9467bd"/>
     <use xlink:href="#m58a9142645" x="533.441458" y="60.638514" style="fill: #9467bd; stroke: #9467bd"/>
     <use xlink:href="#m58a9142645" x="603.075398" y="57.79168" style="fill: #9467bd; stroke: #9467bd"/>
    </g>
   </g>
   <g id="line2d_40">
    <path d="M 80.820852 300.57263 
L 115.637822 179.29769 
L 185.271761 151.491253 
L 254.905701 136.794889 
L 324.53964 129.28731 
L 394.17358 96.701375 
L 463.807519 89.910359 
L 533.441458 76.965315 
L 603.075398 74.957348 
" clip-path="url(#p563982e2a3)" style="fill: none; stroke-dasharray: 2,3.3; stroke-dashoffset: 0; stroke: #8a8a8a; stroke-width: 2"/>
    <defs>
     <path id="m2285c57d23" d="M 0 3 
C 0.795609 3 1.55874 2.683901 2.12132 2.12132 
C 2.683901 1.55874 3 0.795609 3 0 
C 3 -0.795609 2.683901 -1.55874 2.12132 -2.12132 
C 1.55874 -2.683901 0.795609 -3 0 -3 
C -0.795609 -3 -1.55874 -2.683901 -2.12132 -2.12132 
C -2.683901 -1.55874 -3 -0.795609 -3 0 
C -3 0.795609 -2.683901 1.55874 -2.12132 2.12132 
C -1.55874 2.683901 -0.795609 3 0 3 
z
" style="stroke: #8a8a8a"/>
    </defs>
    <g clip-path="url(#p563982e2a3)">
     <use xlink:href="#m2285c57d23" x="80.820852" y="300.57263" style="fill: #8a8a8a; stroke: #8a8a8a"/>
     <use xlink:href="#m2285c57d23" x="115.637822" y="179.29769" style="fill: #8a8a8a; stroke: #8a8a8a"/>
     <use xlink:href="#m2285c57d23" x="185.271761" y="151.491253" style="fill: #8a8a8a; stroke: #8a8a8a"/>
     <use xlink:href="#m2285c57d23" x="254.905701" y="136.794889" style="fill: #8a8a8a; stroke: #8a8a8a"/>
     <use xlink:href="#m2285c57d23" x="324.53964" y="129.28731" style="fill: #8a8a8a; stroke: #8a8a8a"/>
     <use xlink:href="#m2285c57d23" x="394.17358" y="96.701375" style="fill: #8a8a8a; stroke: #8a8a8a"/>
     <use xlink:href="#m2285c57d23" x="463.807519" y="89.910359" style="fill: #8a8a8a; stroke: #8a8a8a"/>
     <use xlink:href="#m2285c57d23" x="533.441458" y="76.965315" style="fill: #8a8a8a; stroke: #8a8a8a"/>
     <use xlink:href="#m2285c57d23" x="603.075398" y="74.957348" style="fill: #8a8a8a; stroke: #8a8a8a"/>
    </g>
   </g>
   <g id="line2d_41">
    <path d="M 80.820852 249.164768 
L 115.637822 154.023281 
L 185.271761 127.758235 
L 254.905701 118.263449 
L 324.53964 107.996675 
L 394.17358 66.651172 
L 463.807519 66.701999 
L 533.441458 65.122047 
L 603.075398 61.96561 
" clip-path="url(#p563982e2a3)" style="fill: none; stroke-dasharray: 2,3.3; stroke-dashoffset: 0; stroke: #515151; stroke-width: 2"/>
    <defs>
     <path id="m402bc6aab3" d="M 0 3 
C 0.795609 3 1.55874 2.683901 2.12132 2.12132 
C 2.683901 1.55874 3 0.795609 3 0 
C 3 -0.795609 2.683901 -1.55874 2.12132 -2.12132 
C 1.55874 -2.683901 0.795609 -3 0 -3 
C -0.795609 -3 -1.55874 -2.683901 -2.12132 -2.12132 
C -2.683901 -1.55874 -3 -0.795609 -3 0 
C -3 0.795609 -2.683901 1.55874 -2.12132 2.12132 
C -1.55874 2.683901 -0.795609 3 0 3 
z
" style="stroke: #515151"/>
    </defs>
    <g clip-path="url(#p563982e2a3)">
     <use xlink:href="#m402bc6aab3" x="80.820852" y="249.164768" style="fill: #515151; stroke: #515151"/>
     <use xlink:href="#m402bc6aab3" x="115.637822" y="154.023281" style="fill: #515151; stroke: #515151"/>
     <use xlink:href="#m402bc6aab3" x="185.271761" y="127.758235" style="fill: #515151; stroke: #515151"/>
     <use xlink:href="#m402bc6aab3" x="254.905701" y="118.263449" style="fill: #515151; stroke: #515151"/>
     <use xlink:href="#m402bc6aab3" x="324.53964" y="107.996675" style="fill: #515151; stroke: #515151"/>
     <use xlink:href="#m402bc6aab3" x="394.17358" y="66.651172" style="fill: #515151; stroke: #515151"/>
     <use xlink:href="#m402bc6aab3" x="463.807519" y="66.701999" style="fill: #515151; stroke: #515151"/>
     <use xlink:href="#m402bc6aab3" x="533.441458" y="65.122047" style="fill: #515151; stroke: #515151"/>
     <use xlink:href="#m402bc6aab3" x="603.075398" y="61.96561" style="fill: #515151; stroke: #515151"/>
    </g>
   </g>
   <g id="patch_3">
    <path d="M 54.708125 334.36 
L 54.708125 7.2 
" style="fill: none; stroke: #000000; stroke-width: 0.8; stroke-linejoin: miter; stroke-linecap: square"/>
   </g>
   <g id="patch_4">
    <path d="M 54.708125 334.36 
L 629.188125 334.36 
" style="fill: none; stroke: #000000; stroke-width: 0.8; stroke-linejoin: miter; stroke-linecap: square"/>
   </g>
   <g id="legend_1">
    <g id="patch_5">
     <path d="M 490.168125 328.36 
L 620.788125 328.36 
Q 623.188125 328.36 623.188125 325.96 
L 623.188125 186.25 
Q 623.188125 183.85 620.788125 183.85 
L 490.168125 183.85 
Q 487.768125 183.85 487.768125 186.25 
L 487.768125 325.96 
Q 487.768125 328.36 490.168125 328.36 
z
" style="fill: #ffffff; opacity: 0.8; stroke: #cccccc; stroke-linejoin: miter"/>
    </g>
    <g id="text_20">
     <text style="font-size: 12px; font-family: 'DejaVu Sans', 'Bitstream Vera Sans', 'Computer Modern Sans Serif', 'Lucida Grande', 'Verdana', 'Geneva', 'Lucid', 'Arial', 'Helvetica', 'Avant Garde', sans-serif; text-anchor: start" x="537.462187" y="197.768125" transform="rotate(-0 537.462187 197.768125)">Model</text>
    </g>
    <g id="line2d_42">
     <path d="M 492.568125 211.181875 
L 504.568125 211.181875 
L 516.568125 211.181875 
" style="fill: none; stroke: #82bbe4; stroke-width: 2; stroke-linecap: square"/>
     <g>
      <use xlink:href="#mc969c5cc08" x="504.568125" y="211.181875" style="fill: #82bbe4; stroke: #82bbe4"/>
     </g>
    </g>
    <g id="text_21">
     <text style="font-size: 12px; font-family: 'DejaVu Sans', 'Bitstream Vera Sans', 'Computer Modern Sans Serif', 'Lucida Grande', 'Verdana', 'Geneva', 'Lucid', 'Arial', 'Helvetica', 'Avant Garde', sans-serif; text-anchor: start" x="526.168125" y="215.381875" transform="rotate(-0 526.168125 215.381875)">VSUNet18</text>
    </g>
    <g id="line2d_43">
     <path d="M 492.568125 228.795625 
L 504.568125 228.795625 
L 516.568125 228.795625 
" style="fill: none; stroke: #1f77b4; stroke-width: 2; stroke-linecap: square"/>
     <g>
      <use xlink:href="#m59cf92a7e9" x="504.568125" y="228.795625" style="fill: #1f77b4; stroke: #1f77b4"/>
     </g>
    </g>
    <g id="text_22">
     <text style="font-size: 12px; font-family: 'DejaVu Sans', 'Bitstream Vera Sans', 'Computer Modern Sans Serif', 'Lucida Grande', 'Verdana', 'Geneva', 'Lucid', 'Arial', 'Helvetica', 'Avant Garde', sans-serif; text-anchor: start" x="526.168125" y="232.995625" transform="rotate(-0 526.168125 232.995625)">VSUNet50</text>
    </g>
    <g id="line2d_44">
     <path d="M 492.568125 246.409375 
L 504.568125 246.409375 
L 516.568125 246.409375 
" style="fill: none; stroke: #518f22; stroke-width: 2; stroke-linecap: square"/>
     <g>
      <use xlink:href="#md6a56107e8" x="504.568125" y="246.409375" style="fill: #518f22; stroke: #518f22"/>
     </g>
    </g>
    <g id="text_23">
     <text style="font-size: 12px; font-family: 'DejaVu Sans', 'Bitstream Vera Sans', 'Computer Modern Sans Serif', 'Lucida Grande', 'Verdana', 'Geneva', 'Lucid', 'Arial', 'Helvetica', 'Avant Garde', sans-serif; text-anchor: start" x="526.168125" y="250.609375" transform="rotate(-0 526.168125 250.609375)">IN-UNet18</text>
    </g>
    <g id="line2d_45">
     <path d="M 492.568125 264.023125 
L 504.568125 264.023125 
L 516.568125 264.023125 
" style="fill: none; stroke: #7cd87c; stroke-width: 2; stroke-linecap: square"/>
     <g>
      <use xlink:href="#m91460ce9b7" x="504.568125" y="264.023125" style="fill: #7cd87c; stroke: #7cd87c"/>
     </g>
    </g>
    <g id="text_24">
     <text style="font-size: 12px; font-family: 'DejaVu Sans', 'Bitstream Vera Sans', 'Computer Modern Sans Serif', 'Lucida Grande', 'Verdana', 'Geneva', 'Lucid', 'Arial', 'Helvetica', 'Avant Garde', sans-serif; text-anchor: start" x="526.168125" y="268.223125" transform="rotate(-0 526.168125 268.223125)">IN-UNet50</text>
    </g>
    <g id="line2d_46">
     <path d="M 492.568125 281.636875 
L 504.568125 281.636875 
L 516.568125 281.636875 
" style="fill: none; stroke: #9467bd; stroke-width: 2; stroke-linecap: square"/>
     <g>
      <use xlink:href="#m58a9142645" x="504.568125" y="281.636875" style="fill: #9467bd; stroke: #9467bd"/>
     </g>
    </g>
    <g id="text_25">
     <text style="font-size: 12px; font-family: 'DejaVu Sans', 'Bitstream Vera Sans', 'Computer Modern Sans Serif', 'Lucida Grande', 'Verdana', 'Geneva', 'Lucid', 'Arial', 'Helvetica', 'Avant Garde', sans-serif; text-anchor: start" x="526.168125" y="285.836875" transform="rotate(-0 526.168125 285.836875)">LiteMedSAM-FT</text>
    </g>
    <g id="line2d_47">
     <path d="M 492.568125 299.250625 
L 504.568125 299.250625 
L 516.568125 299.250625 
" style="fill: none; stroke-dasharray: 2,3.3; stroke-dashoffset: 0; stroke: #8a8a8a; stroke-width: 2"/>
     <g>
      <use xlink:href="#m2285c57d23" x="504.568125" y="299.250625" style="fill: #8a8a8a; stroke: #8a8a8a"/>
     </g>
    </g>
    <g id="text_26">
     <text style="font-size: 12px; font-family: 'DejaVu Sans', 'Bitstream Vera Sans', 'Computer Modern Sans Serif', 'Lucida Grande', 'Verdana', 'Geneva', 'Lucid', 'Arial', 'Helvetica', 'Avant Garde', sans-serif; text-anchor: start" x="526.168125" y="303.450625" transform="rotate(-0 526.168125 303.450625)">UNet18</text>
    </g>
    <g id="line2d_48">
     <path d="M 492.568125 316.864375 
L 504.568125 316.864375 
L 516.568125 316.864375 
" style="fill: none; stroke-dasharray: 2,3.3; stroke-dashoffset: 0; stroke: #515151; stroke-width: 2"/>
     <g>
      <use xlink:href="#m402bc6aab3" x="504.568125" y="316.864375" style="fill: #515151; stroke: #515151"/>
     </g>
    </g>
    <g id="text_27">
     <text style="font-size: 12px; font-family: 'DejaVu Sans', 'Bitstream Vera Sans', 'Computer Modern Sans Serif', 'Lucida Grande', 'Verdana', 'Geneva', 'Lucid', 'Arial', 'Helvetica', 'Avant Garde', sans-serif; text-anchor: start" x="526.168125" y="321.064375" transform="rotate(-0 526.168125 321.064375)">UNet50</text>
    </g>
   </g>
  </g>
 </g>
 <defs>
  <clipPath id="p563982e2a3">
   <rect x="54.708125" y="7.2" width="574.48" height="327.16"/>
  </clipPath>
 </defs>
</svg>
